<?xml version="1.0" standalone="no"?>
<svg version="1.0" xmlns="http://www.w3.org/2000/svg"
 width="512.000000pt" height="512.000000pt" viewBox="0 0 512.000000 512.000000"
 preserveAspectRatio="xMidYMid meet">

<g transform="translate(0.000000,512.000000) scale(0.100000,-0.100000)"
fill="#f1f1f1" stroke="none">
<path d="M1938 5005 c-98 -25 -177 -71 -256 -151 l-72 -74 -168 0 c-193 0
-224 -9 -284 -79 -46 -54 -58 -104 -58 -245 l0 -116 961 0 960 0 -3 148 c-3
143 -4 150 -31 190 -15 23 -46 54 -69 69 -41 28 -44 28 -224 31 l-183 3 -45
53 c-95 112 -228 175 -381 182 -58 2 -110 -1 -147 -11z"/>
<path d="M450 4546 c-96 -25 -175 -98 -203 -187 -16 -47 -17 -219 -17 -2035 0
-1958 0 -1984 20 -2037 24 -63 84 -127 149 -159 l46 -23 1473 -3 c1403 -2
1473 -1 1469 15 -3 10 -8 34 -11 54 -6 33 -12 38 -71 64 l-64 27 -46 -33 c-36
-26 -58 -34 -103 -37 -72 -5 -111 10 -178 72 l-52 46 -1208 2 -1209 3 -3 2013
-2 2012 270 0 270 0 0 110 0 110 -242 -1 c-159 0 -259 -5 -288 -13z"/>
<path d="M3145 4548 c-3 -8 -4 -57 -3 -109 l3 -94 268 -3 267 -2 0 -900 0
-900 110 0 111 0 -3 898 -3 897 -28 57 c-32 64 -80 111 -146 142 -42 19 -67
21 -308 24 -219 3 -264 1 -268 -10z"/>
<path d="M562 2328 l3 -1893 1088 -3 1088 -2 -35 46 c-60 78 -62 173 -6 252
l32 45 -29 66 c-29 65 -30 66 -74 72 -78 9 -134 51 -164 121 -12 29 -15 78
-15 230 0 165 3 199 19 233 27 61 80 102 150 116 l59 13 26 63 26 63 -32 44
c-37 53 -48 131 -28 192 17 51 255 295 317 325 65 32 148 24 209 -20 l46 -32
63 27 63 28 12 58 c14 75 61 131 131 155 l49 18 0 837 0 838 -1500 0 -1500 0
2 -1892z m810 1465 c17 -15 18 -37 18 -271 0 -224 -2 -258 -17 -274 -15 -17
-37 -18 -274 -18 -255 0 -258 0 -273 22 -13 19 -16 62 -16 268 0 206 3 249 16
268 15 22 18 22 271 22 225 0 259 -2 275 -17z m1930 -90 c18 -16 23 -49 10
-69 -22 -33 -47 -34 -900 -34 -844 0 -849 0 -876 21 -30 23 -33 45 -10 77 l15
22 871 0 c797 0 873 -1 890 -17z m-25 -274 c46 -17 58 -62 25 -93 -17 -15 -90
-16 -892 -14 l-874 3 -16 27 c-17 32 -8 55 31 75 32 17 1683 19 1726 2z
m-1904 -428 c15 -12 17 -44 17 -268 0 -156 -4 -262 -10 -274 -10 -18 -24 -19
-275 -19 -226 0 -266 2 -279 16 -14 13 -16 52 -16 268 0 258 2 275 40 289 8 3
126 5 261 4 192 -2 250 -5 262 -16z m1927 -91 c11 -11 20 -29 20 -40 0 -11 -9
-29 -20 -40 -20 -20 -33 -20 -885 -20 -852 0 -865 0 -885 20 -11 11 -20 29
-20 40 0 11 9 29 20 40 20 20 33 20 885 20 852 0 865 0 885 -20z m2 -287 c24
-21 23 -58 -2 -83 -20 -20 -33 -20 -885 -20 -852 0 -865 0 -885 20 -11 11 -20
29 -20 40 0 11 9 29 20 40 20 20 33 20 887 20 792 0 868 -1 885 -17z m-1930
-420 c17 -15 18 -37 18 -271 0 -224 -2 -258 -17 -274 -15 -17 -37 -18 -270
-18 -240 0 -254 1 -273 20 -19 19 -20 33 -20 272 0 220 2 254 17 270 15 17 37
18 271 18 224 0 258 -2 274 -17z m927 -87 c25 -23 27 -53 4 -78 -15 -17 -40
-18 -386 -18 -331 0 -372 2 -389 17 -33 29 -17 77 32 96 8 3 173 5 366 4 331
-2 353 -3 373 -21z m-16 -277 c41 -22 49 -59 20 -91 -15 -17 -40 -18 -389 -18
l-373 0 -15 22 c-23 32 -20 54 10 77 26 20 38 21 376 21 244 0 356 -3 371 -11z
m-915 -425 c22 -15 22 -18 22 -270 0 -157 -4 -263 -10 -275 -10 -18 -24 -19
-272 -19 -229 0 -264 2 -280 17 -17 15 -18 37 -18 270 0 240 1 254 20 273 19
19 33 20 268 20 208 0 251 -2 270 -16z m936 -96 c21 -30 20 -54 -4 -78 -19
-19 -33 -20 -385 -20 -352 0 -366 1 -385 20 -11 11 -20 29 -20 40 0 11 9 29
20 40 19 19 33 20 389 20 l370 0 15 -22z m-2 -285 c24 -21 23 -58 -2 -83 -19
-19 -33 -20 -385 -20 -352 0 -366 1 -385 20 -24 24 -25 48 -4 78 l15 22 371 0
c332 0 373 -2 390 -17z"/>
<path d="M920 3520 l0 -180 180 0 180 0 0 180 0 180 -180 0 -180 0 0 -180z
m326 91 c18 -35 8 -52 -76 -136 -95 -94 -111 -97 -176 -34 -48 47 -56 79 -27
111 19 22 51 23 79 4 19 -14 24 -12 65 30 24 25 53 49 64 54 27 10 58 -2 71
-29z"/>
<path d="M927 2903 c-4 -3 -7 -84 -7 -180 l0 -173 180 0 180 0 0 180 0 180
-173 0 c-96 0 -177 -3 -180 -7z m305 -65 c9 -7 19 -23 23 -36 6 -19 -7 -37
-81 -112 -104 -107 -117 -110 -180 -46 -54 53 -60 95 -18 123 25 16 28 16 56
0 l30 -17 55 50 c56 51 86 61 115 38z"/>
<path d="M920 1930 l0 -180 180 0 180 0 0 180 0 180 -180 0 -180 0 0 -180z
m316 105 c35 -35 26 -55 -64 -147 -94 -95 -114 -100 -179 -36 -46 46 -56 84
-27 112 20 20 68 21 84 1 11 -13 21 -8 71 40 31 30 65 55 74 55 9 0 27 -11 41
-25z"/>
<path d="M920 1140 l0 -180 180 0 180 0 0 180 0 180 -180 0 -180 0 0 -180z
m312 108 c9 -7 19 -23 23 -36 6 -19 -7 -37 -81 -112 -55 -57 -95 -90 -109 -90
-11 0 -42 20 -68 43 -57 53 -64 95 -21 124 25 16 28 16 57 0 l30 -18 53 51
c54 51 86 61 116 38z"/>
<path d="M3524 2397 c-24 -21 -27 -32 -32 -99 l-4 -75 -69 -22 c-38 -12 -99
-37 -136 -56 l-67 -34 -53 50 c-43 41 -58 49 -89 49 -35 0 -47 -9 -166 -128
-119 -119 -128 -131 -128 -166 0 -31 8 -46 49 -89 l50 -53 -34 -67 c-19 -37
-44 -98 -56 -136 l-22 -69 -75 -4 c-66 -3 -77 -6 -98 -31 -23 -27 -24 -33 -24
-206 0 -164 2 -180 20 -204 19 -24 29 -26 97 -29 l77 -3 26 -77 c15 -43 41
-106 58 -139 l32 -62 -50 -53 c-42 -44 -50 -59 -50 -90 0 -35 10 -47 128 -166
117 -116 132 -128 164 -128 30 0 47 9 91 50 l54 49 69 -34 c39 -18 99 -43 136
-55 l65 -22 5 -76 c5 -67 8 -78 32 -99 26 -22 33 -23 205 -23 164 0 180 2 204
20 24 19 26 29 29 97 l3 77 76 26 c41 15 104 41 138 59 l63 32 54 -51 c44 -42
59 -50 90 -50 35 0 47 10 166 128 118 119 128 131 128 166 0 31 -8 46 -50 90
l-51 54 32 63 c18 34 44 97 59 138 l26 76 77 3 c68 3 78 5 97 29 18 24 20 40
20 204 0 172 -1 179 -23 205 -21 24 -32 27 -100 32 l-76 5 -20 66 c-11 36 -36
97 -56 135 l-34 69 49 54 c41 45 50 61 50 91 0 33 -11 47 -128 164 -119 119
-131 128 -166 128 -31 0 -46 -8 -90 -50 l-53 -50 -47 26 c-26 14 -88 41 -139
59 l-92 33 -3 76 c-3 67 -6 77 -29 96 -24 18 -40 20 -204 20 -172 0 -179 -1
-205 -23z m421 -471 c278 -94 463 -331 482 -619 8 -128 -14 -234 -74 -357 -38
-79 -60 -109 -132 -181 -72 -72 -102 -94 -181 -132 -209 -102 -411 -102 -618
-1 -377 184 -507 661 -276 1009 77 117 212 227 334 270 148 54 326 57 465 11z"/>
<path d="M3583 1821 c-127 -35 -236 -107 -310 -206 -60 -79 -80 -122 -104
-212 -34 -136 -20 -270 43 -402 43 -92 167 -214 262 -260 234 -112 499 -63
674 124 254 271 202 683 -112 887 -123 80 -308 108 -453 69z m399 -368 c41
-37 27 -59 -151 -237 -145 -145 -172 -168 -192 -163 -13 4 -59 42 -103 86 -83
84 -98 120 -60 148 33 24 63 15 117 -36 l52 -50 136 135 c142 139 163 151 201
117z"/>
</g>
</svg>
