<svg id="visual" viewBox="0 0 900 600" width="900" height="600" xmlns="http://www.w3.org/2000/svg" xmlns:xlink="http://www.w3.org/1999/xlink" version="1.1"><path d="M0 389L21.5 395.7C43 402.3 86 415.7 128.8 419.8C171.7 424 214.3 419 257.2 420.7C300 422.3 343 430.7 385.8 425.5C428.7 420.3 471.3 401.7 514.2 391.7C557 381.7 600 380.3 642.8 391.2C685.7 402 728.3 425 771.2 425.2C814 425.3 857 402.7 878.5 391.3L900 380L900 601L878.5 601C857 601 814 601 771.2 601C728.3 601 685.7 601 642.8 601C600 601 557 601 514.2 601C471.3 601 428.7 601 385.8 601C343 601 300 601 257.2 601C214.3 601 171.7 601 128.8 601C86 601 43 601 21.5 601L0 601Z" fill="#7bbdf9"></path><path d="M0 404L21.5 414C43 424 86 444 128.8 449.5C171.7 455 214.3 446 257.2 446.8C300 447.7 343 458.3 385.8 451.3C428.7 444.3 471.3 419.7 514.2 409.2C557 398.7 600 402.3 642.8 410C685.7 417.7 728.3 429.3 771.2 429.8C814 430.3 857 419.7 878.5 414.3L900 409L900 601L878.5 601C857 601 814 601 771.2 601C728.3 601 685.7 601 642.8 601C600 601 557 601 514.2 601C471.3 601 428.7 601 385.8 601C343 601 300 601 257.2 601C214.3 601 171.7 601 128.8 601C86 601 43 601 21.5 601L0 601Z" fill="#8bc3f8"></path><path d="M0 492L21.5 488.2C43 484.3 86 476.7 128.8 472C171.7 467.3 214.3 465.7 257.2 459.5C300 453.3 343 442.7 385.8 435.8C428.7 429 471.3 426 514.2 435.5C557 445 600 467 642.8 473.3C685.7 479.7 728.3 470.3 771.2 462.2C814 454 857 447 878.5 443.5L900 440L900 601L878.5 601C857 601 814 601 771.2 601C728.3 601 685.7 601 642.8 601C600 601 557 601 514.2 601C471.3 601 428.7 601 385.8 601C343 601 300 601 257.2 601C214.3 601 171.7 601 128.8 601C86 601 43 601 21.5 601L0 601Z" fill="#9ac8f7"></path><path d="M0 470L21.5 474.2C43 478.3 86 486.7 128.8 481.2C171.7 475.7 214.3 456.3 257.2 457.7C300 459 343 481 385.8 481.2C428.7 481.3 471.3 459.7 514.2 450.7C557 441.7 600 445.3 642.8 446.8C685.7 448.3 728.3 447.7 771.2 455.2C814 462.7 857 478.3 878.5 486.2L900 494L900 601L878.5 601C857 601 814 601 771.2 601C728.3 601 685.7 601 642.8 601C600 601 557 601 514.2 601C471.3 601 428.7 601 385.8 601C343 601 300 601 257.2 601C214.3 601 171.7 601 128.8 601C86 601 43 601 21.5 601L0 601Z" fill="#a8cef6"></path><path d="M0 481L21.5 479.2C43 477.3 86 473.7 128.8 479C171.7 484.3 214.3 498.7 257.2 500.7C300 502.7 343 492.3 385.8 485.2C428.7 478 471.3 474 514.2 473C557 472 600 474 642.8 477.7C685.7 481.3 728.3 486.7 771.2 488.8C814 491 857 490 878.5 489.5L900 489L900 601L878.5 601C857 601 814 601 771.2 601C728.3 601 685.7 601 642.8 601C600 601 557 601 514.2 601C471.3 601 428.7 601 385.8 601C343 601 300 601 257.2 601C214.3 601 171.7 601 128.8 601C86 601 43 601 21.5 601L0 601Z" fill="#b6d4f5"></path><path d="M0 521L21.5 515.7C43 510.3 86 499.7 128.8 499.8C171.7 500 214.3 511 257.2 512.8C300 514.7 343 507.3 385.8 500C428.7 492.7 471.3 485.3 514.2 489.7C557 494 600 510 642.8 510.2C685.7 510.3 728.3 494.7 771.2 492.7C814 490.7 857 502.3 878.5 508.2L900 514L900 601L878.5 601C857 601 814 601 771.2 601C728.3 601 685.7 601 642.8 601C600 601 557 601 514.2 601C471.3 601 428.7 601 385.8 601C343 601 300 601 257.2 601C214.3 601 171.7 601 128.8 601C86 601 43 601 21.5 601L0 601Z" fill="#c2daf5"></path><path d="M0 506L21.5 504.3C43 502.7 86 499.3 128.8 497.2C171.7 495 214.3 494 257.2 494.2C300 494.3 343 495.7 385.8 497.2C428.7 498.7 471.3 500.3 514.2 507.7C557 515 600 528 642.8 530.3C685.7 532.7 728.3 524.3 771.2 519.3C814 514.3 857 512.7 878.5 511.8L900 511L900 601L878.5 601C857 601 814 601 771.2 601C728.3 601 685.7 601 642.8 601C600 601 557 601 514.2 601C471.3 601 428.7 601 385.8 601C343 601 300 601 257.2 601C214.3 601 171.7 601 128.8 601C86 601 43 601 21.5 601L0 601Z" fill="#cee0f4"></path><path d="M0 530L21.5 532.5C43 535 86 540 128.8 543C171.7 546 214.3 547 257.2 545.3C300 543.7 343 539.3 385.8 535.5C428.7 531.7 471.3 528.3 514.2 528.8C557 529.3 600 533.7 642.8 537.2C685.7 540.7 728.3 543.3 771.2 545.5C814 547.7 857 549.3 878.5 550.2L900 551L900 601L878.5 601C857 601 814 601 771.2 601C728.3 601 685.7 601 642.8 601C600 601 557 601 514.2 601C471.3 601 428.7 601 385.8 601C343 601 300 601 257.2 601C214.3 601 171.7 601 128.8 601C86 601 43 601 21.5 601L0 601Z" fill="#dae5f3"></path><path d="M0 562L21.5 562.3C43 562.7 86 563.3 128.8 560.2C171.7 557 214.3 550 257.2 545.7C300 541.3 343 539.7 385.8 538.7C428.7 537.7 471.3 537.3 514.2 537.2C557 537 600 537 642.8 537C685.7 537 728.3 537 771.2 538.2C814 539.3 857 541.7 878.5 542.8L900 544L900 601L878.5 601C857 601 814 601 771.2 601C728.3 601 685.7 601 642.8 601C600 601 557 601 514.2 601C471.3 601 428.7 601 385.8 601C343 601 300 601 257.2 601C214.3 601 171.7 601 128.8 601C86 601 43 601 21.5 601L0 601Z" fill="#e6ebf2"></path><path d="M0 574L21.5 571.2C43 568.3 86 562.7 128.8 562.2C171.7 561.7 214.3 566.3 257.2 568.3C300 570.3 343 569.7 385.8 570.3C428.7 571 471.3 573 514.2 572.2C557 571.3 600 567.7 642.8 566.2C685.7 564.7 728.3 565.3 771.2 564.3C814 563.3 857 560.7 878.5 559.3L900 558L900 601L878.5 601C857 601 814 601 771.2 601C728.3 601 685.7 601 642.8 601C600 601 557 601 514.2 601C471.3 601 428.7 601 385.8 601C343 601 300 601 257.2 601C214.3 601 171.7 601 128.8 601C86 601 43 601 21.5 601L0 601Z" fill="#f1f1f1"></path></svg>