<svg id="visual" viewBox="0 0 450 900" width="450" height="900" xmlns="http://www.w3.org/2000/svg" xmlns:xlink="http://www.w3.org/1999/xlink" version="1.1"><path d="M293 900L298.2 878.5C303.3 857 313.7 814 317 771.2C320.3 728.3 316.7 685.7 317.8 642.8C319 600 325 557 321 514.2C317 471.3 303 428.7 295.5 385.8C288 343 287 300 295.2 257.2C303.3 214.3 320.7 171.7 320.8 128.8C321 86 304 43 295.5 21.5L287 0L450 0L450 21.5C450 43 450 86 450 128.8C450 171.7 450 214.3 450 257.2C450 300 450 343 450 385.8C450 428.7 450 471.3 450 514.2C450 557 450 600 450 642.8C450 685.7 450 728.3 450 771.2C450 814 450 857 450 878.5L450 900Z" fill="#7bbdf9"></path><path d="M304 900L311.7 878.5C319.3 857 334.7 814 338.8 771.2C343 728.3 336 685.7 336.5 642.8C337 600 345 557 339.8 514.2C334.7 471.3 316.3 428.7 308.5 385.8C300.7 343 303.3 300 309 257.2C314.7 214.3 323.3 171.7 323.8 128.8C324.3 86 316.7 43 312.8 21.5L309 0L450 0L450 21.5C450 43 450 86 450 128.8C450 171.7 450 214.3 450 257.2C450 300 450 343 450 385.8C450 428.7 450 471.3 450 514.2C450 557 450 600 450 642.8C450 685.7 450 728.3 450 771.2C450 814 450 857 450 878.5L450 900Z" fill="#8bc3f8"></path><path d="M371 900L368.2 878.5C365.3 857 359.7 814 356 771.2C352.3 728.3 350.7 685.7 345.8 642.8C341 600 333 557 328 514.2C323 471.3 321 428.7 328.2 385.8C335.3 343 351.7 300 356.3 257.2C361 214.3 354 171.7 348 128.8C342 86 337 43 334.5 21.5L332 0L450 0L450 21.5C450 43 450 86 450 128.8C450 171.7 450 214.3 450 257.2C450 300 450 343 450 385.8C450 428.7 450 471.3 450 514.2C450 557 450 600 450 642.8C450 685.7 450 728.3 450 771.2C450 814 450 857 450 878.5L450 900Z" fill="#9ac8f7"></path><path d="M355 900L358 878.5C361 857 367 814 362.7 771.2C358.3 728.3 343.7 685.7 344.7 642.8C345.7 600 362.3 557 362.7 514.2C363 471.3 347 428.7 340.3 385.8C333.7 343 336.3 300 337.3 257.2C338.3 214.3 337.7 171.7 343.2 128.8C348.7 86 360.3 43 366.2 21.5L372 0L450 0L450 21.5C450 43 450 86 450 128.8C450 171.7 450 214.3 450 257.2C450 300 450 343 450 385.8C450 428.7 450 471.3 450 514.2C450 557 450 600 450 642.8C450 685.7 450 728.3 450 771.2C450 814 450 857 450 878.5L450 900Z" fill="#a8cef6"></path><path d="M363 900L361.5 878.5C360 857 357 814 360.8 771.2C364.7 728.3 375.3 685.7 376.8 642.8C378.3 600 370.7 557 365.5 514.2C360.3 471.3 357.7 428.7 356.8 385.8C356 343 357 300 359.7 257.2C362.3 214.3 366.7 171.7 368.5 128.8C370.3 86 369.7 43 369.3 21.5L369 0L450 0L450 21.5C450 43 450 86 450 128.8C450 171.7 450 214.3 450 257.2C450 300 450 343 450 385.8C450 428.7 450 471.3 450 514.2C450 557 450 600 450 642.8C450 685.7 450 728.3 450 771.2C450 814 450 857 450 878.5L450 900Z" fill="#b6d4f5"></path><path d="M393 900L388.8 878.5C384.7 857 376.3 814 376.3 771.2C376.3 728.3 384.7 685.7 386.2 642.8C387.7 600 382.3 557 376.8 514.2C371.3 471.3 365.7 428.7 368.8 385.8C372 343 384 300 384.2 257.2C384.3 214.3 372.7 171.7 371.2 128.8C369.7 86 378.3 43 382.7 21.5L387 0L450 0L450 21.5C450 43 450 86 450 128.8C450 171.7 450 214.3 450 257.2C450 300 450 343 450 385.8C450 428.7 450 471.3 450 514.2C450 557 450 600 450 642.8C450 685.7 450 728.3 450 771.2C450 814 450 857 450 878.5L450 900Z" fill="#c2daf5"></path><path d="M381 900L379.7 878.5C378.3 857 375.7 814 374 771.2C372.3 728.3 371.7 685.7 371.8 642.8C372 600 373 557 374.2 514.2C375.3 471.3 376.7 428.7 382.2 385.8C387.7 343 397.3 300 399 257.2C400.7 214.3 394.3 171.7 390.7 128.8C387 86 386 43 385.5 21.5L385 0L450 0L450 21.5C450 43 450 86 450 128.8C450 171.7 450 214.3 450 257.2C450 300 450 343 450 385.8C450 428.7 450 471.3 450 514.2C450 557 450 600 450 642.8C450 685.7 450 728.3 450 771.2C450 814 450 857 450 878.5L450 900Z" fill="#cee0f4"></path><path d="M399 900L401 878.5C403 857 407 814 409.3 771.2C411.7 728.3 412.3 685.7 411 642.8C409.7 600 406.3 557 403.3 514.2C400.3 471.3 397.7 428.7 398 385.8C398.3 343 401.7 300 404.5 257.2C407.3 214.3 409.7 171.7 411.3 128.8C413 86 414 43 414.5 21.5L415 0L450 0L450 21.5C450 43 450 86 450 128.8C450 171.7 450 214.3 450 257.2C450 300 450 343 450 385.8C450 428.7 450 471.3 450 514.2C450 557 450 600 450 642.8C450 685.7 450 728.3 450 771.2C450 814 450 857 450 878.5L450 900Z" fill="#dae5f3"></path><path d="M423 900L423.3 878.5C423.7 857 424.3 814 422 771.2C419.7 728.3 414.3 685.7 411.2 642.8C408 600 407 557 406.2 514.2C405.3 471.3 404.7 428.7 404.3 385.8C404 343 404 300 404 257.2C404 214.3 404 171.7 405 128.8C406 86 408 43 409 21.5L410 0L450 0L450 21.5C450 43 450 86 450 128.8C450 171.7 450 214.3 450 257.2C450 300 450 343 450 385.8C450 428.7 450 471.3 450 514.2C450 557 450 600 450 642.8C450 685.7 450 728.3 450 771.2C450 814 450 857 450 878.5L450 900Z" fill="#e6ebf2"></path><path d="M432 900L429.8 878.5C427.7 857 423.3 814 423 771.2C422.7 728.3 426.3 685.7 427.8 642.8C429.3 600 428.7 557 429.2 514.2C429.7 471.3 431.3 428.7 430.8 385.8C430.3 343 427.7 300 426.5 257.2C425.3 214.3 425.7 171.7 424.8 128.8C424 86 422 43 421 21.5L420 0L450 0L450 21.5C450 43 450 86 450 128.8C450 171.7 450 214.3 450 257.2C450 300 450 343 450 385.8C450 428.7 450 471.3 450 514.2C450 557 450 600 450 642.8C450 685.7 450 728.3 450 771.2C450 814 450 857 450 878.5L450 900Z" fill="#f1f1f1"></path></svg>