<svg width="182" height="79" viewBox="0 0 182 79" fill="none" xmlns="http://www.w3.org/2000/svg">
<path d="M46.8452 7.5035C50.3742 6.8715 54.4192 8.0435 57.5612 8.9525C58.1052 9.1075 58.6213 9.2585 59.0893 9.3845C65.0733 10.9885 68.6853 15.6675 71.5993 19.9265C73.2253 22.3025 74.5933 24.6855 75.9143 26.9915C78.5833 31.6455 81.1032 36.0365 85.3562 39.6605C88.8062 42.5995 95.9133 45.8085 99.1953 44.1395C101.643 42.9015 102.144 39.6615 102.586 35.2245C102.685 34.2275 102.781 33.2705 102.915 32.3975C103.324 29.7155 104.65 22.9605 108.114 18.1295C110.702 14.5195 114.467 12.7075 118.999 12.8895C128.02 13.2515 137.853 21.5025 141.199 27.0655C141.478 27.5305 141.748 28.0075 142.009 28.4985C148.53 30.6625 151.146 35.5125 153.914 40.6435L154.201 41.1745C155.495 43.5695 156.225 46.1015 156.933 48.5525C157.876 51.8225 158.768 54.9115 160.902 57.3145C162.901 59.5685 166.269 60.5065 169.527 61.4155C170.078 61.5695 170.624 61.7215 171.159 61.8785L171.396 61.9485C172.753 62.3465 174.428 62.8425 175.465 62.5725C175.849 62.4705 176.152 62.3885 176.217 59.9855C176.257 58.5445 177.458 57.4075 178.9 57.4475C180.341 57.4865 181.478 58.6855 181.44 60.1285C181.387 62.0175 181.267 66.4395 176.803 67.6225C174.357 68.2665 171.796 67.5115 169.92 66.9595L169.693 66.8925C169.177 66.7425 168.652 66.5955 168.123 66.4475C164.323 65.3875 160.015 64.1865 156.996 60.7845C154.078 57.4955 152.978 53.6865 151.916 50.0025C151.255 47.7175 150.634 45.5595 149.606 43.6615L149.316 43.1255C147.789 40.2925 146.511 37.9235 144.752 36.1565C145.589 40.8175 144.75 45.4335 140.687 48.4275C137.477 50.7915 134.367 51.6465 131.445 50.9655C128.329 50.2385 125.691 47.8235 123.598 43.7805C121.18 39.1115 121.033 34.3445 123.202 31.0325C125.305 27.8195 129.22 26.4135 134.511 26.8775C130.758 22.7735 124.282 18.3285 118.788 18.1075C116.02 17.9965 113.915 18.9985 112.356 21.1745C110.412 23.8875 108.81 28.3785 108.078 33.1855C107.956 33.9765 107.873 34.8435 107.782 35.7425C107.345 40.1425 106.746 46.1725 101.555 48.8005C95.1543 52.0445 85.5923 46.7275 81.9673 43.6395C77.0233 39.4235 74.1543 34.4265 71.3833 29.5935C70.1113 27.3745 68.7953 25.0815 67.2873 22.8765C64.2403 18.4265 61.5802 15.4625 57.7362 14.4325C57.2342 14.2975 56.6873 14.1375 56.1073 13.9705C53.1563 13.1175 48.6983 11.8295 46.6233 13.0405C45.3813 13.7675 43.7793 13.3455 43.0523 12.0995C42.3243 10.8535 42.7453 9.2545 43.9923 8.5285C44.8813 8.0085 45.8412 7.6845 46.8452 7.5035ZM138.297 32.8545C133.85 31.7125 129.147 31.4885 127.573 33.8915C126.251 35.9115 127.049 39.0835 128.237 41.3795C129.17 43.1815 130.689 45.4245 132.63 45.8765C134 46.1975 135.668 45.6405 137.589 44.2225C140.902 41.7795 139.971 36.7895 138.297 32.8545Z" fill="#C995B9"/>
<path d="M34.5217 4.36136C34.7727 4.31536 35.0217 4.27135 35.2727 4.22935L36.0137 4.09535C42.4217 2.94935 51.9107 1.80136 60.2717 5.08636C65.2137 7.02436 68.5707 10.8674 71.8127 14.5814C72.2117 15.0394 72.6116 15.4934 73.0116 15.9464C78.3086 21.9184 81.1646 27.7264 82.0066 34.2264C82.6416 39.1444 83.5136 45.8814 80.2096 51.0694C75.8556 57.9044 71.1927 62.5444 65.0917 66.1114C58.6167 69.8974 50.7977 73.9604 41.6957 75.4074C37.8427 76.0204 34.8137 76.2164 32.1647 76.0244C29.5447 75.8344 26.2187 75.4674 23.7137 74.2864C21.5837 73.2824 19.6447 71.7604 17.9377 70.4204L17.1706 69.8223C15.5246 68.5463 14.5366 67.4623 13.8766 66.1713L13.1767 66.7064C10.3497 62.9894 7.94769 59.5054 5.83269 56.0574C2.20769 50.1453 2.24965 41.7244 2.59965 37.2294C3.08365 30.9894 3.83869 24.5634 6.04368 19.8144C7.88268 15.8574 10.7807 13.9884 13.5837 12.1774C14.2777 11.7284 14.9897 11.2694 15.7077 10.7624C21.2397 6.84436 27.9627 5.53536 34.5217 4.36136ZM41.6416 70.1174C49.5516 68.7024 56.5866 65.0313 62.4546 61.6023C67.8776 58.4323 71.8696 54.4434 75.8056 48.2634C78.0916 44.6724 77.3917 39.2514 76.8287 34.8944C76.1287 29.4824 73.6757 24.5634 69.1067 19.4144C68.6947 18.9514 68.2877 18.4854 67.8807 18.0184C64.9187 14.6264 62.1196 11.4204 58.3636 9.94636C51.2346 7.15036 42.7207 8.20236 36.9327 9.23736L36.1907 9.37235C29.9427 10.4774 23.5176 11.6324 18.7256 15.0224C17.9466 15.5744 17.1717 16.0744 16.4167 16.5644C13.9397 18.1624 11.9827 19.4254 10.7807 22.0144C8.92468 26.0104 8.25365 31.8824 7.80565 37.6334C7.50665 41.4944 7.42965 48.6714 10.2847 53.3234C11.9287 56.0024 13.7567 58.7114 15.8417 61.5504L17.8207 61.1954C18.2927 63.8234 18.5546 64.2854 20.3736 65.6944L21.1617 66.3114C22.7267 67.5394 24.3457 68.8104 25.9397 69.5624C27.8847 70.4784 31.2687 70.7234 32.5417 70.8174C34.7797 70.9774 37.4287 70.7974 40.8747 70.2504C41.1327 70.2064 41.3866 70.1624 41.6416 70.1174Z" fill="#B385A4"/>
<path d="M35.2203 8.5774C40.8363 7.5714 46.7613 7.65741 51.4543 8.91741C60.6073 11.3714 68.5893 18.4414 71.7873 26.9294C73.0193 30.1974 73.7424 33.9344 74.2974 37.8784C74.3284 38.0814 74.3584 38.2824 74.3834 38.4824C74.5604 39.7914 74.7234 41.1194 74.8804 42.4584C75.3594 46.5424 74.6553 50.9644 74.0333 54.8644L73.7803 56.4694L70.7153 55.9984C69.2503 58.2314 67.3544 60.3264 64.9904 62.3374C64.3104 62.9154 63.5894 63.4404 62.8284 63.9114C59.3214 66.5284 52.5623 70.9814 46.3793 71.6044C33.6263 72.9064 17.2663 69.9834 10.8553 57.9584C9.62634 56.0034 8.73737 53.7454 8.37237 51.0644C8.35737 50.9664 8.34533 50.8694 8.33233 50.7724C5.91233 39.8534 8.66032 27.9754 15.6193 20.6404L16.2214 20.0064C19.7644 16.2604 23.7803 12.0134 29.2233 10.1264C31.1283 9.46641 33.1533 8.9474 35.2203 8.5774ZM42.1133 13.1264C38.3413 13.2084 34.3753 13.8684 30.9333 15.0634C30.4943 15.2144 30.0633 15.3894 29.6403 15.5844C30.4943 15.5434 31.4034 15.5704 32.3654 15.6884C34.2834 14.4834 36.4233 14.1794 38.3213 13.9084C38.9043 13.8244 39.4793 13.7424 40.0403 13.6334C40.7363 13.4924 41.4143 13.3174 42.1133 13.1264ZM63.5803 25.9304C63.0073 25.1464 62.3913 24.3674 61.7313 23.5954C59.5833 21.0694 56.2184 18.2334 51.5524 17.4414C56.0044 19.4394 60.6103 22.9884 63.5803 25.9304ZM28.4083 23.6224C27.3653 23.7434 26.3453 23.8924 25.3643 24.0664C26.3993 23.9814 27.4304 23.9644 28.4564 24.0234C28.4364 23.8894 28.4193 23.7564 28.4083 23.6224ZM37.4304 23.3504C36.1634 23.2714 34.8893 23.2454 33.6233 23.2674C33.7063 23.8184 33.9794 24.4634 34.7014 24.9914C34.9344 25.1384 35.7783 25.3394 36.2833 25.4564C37.0663 25.6444 37.8763 25.8344 38.6263 26.1764L39.0983 26.3884C38.6433 25.2444 38.1014 24.1804 37.4304 23.3504ZM49.3093 26.2364C48.5323 25.8464 47.7223 25.5014 46.8843 25.1944C47.0493 25.6124 47.2424 26.0754 47.4584 26.5744C48.0604 26.3864 48.6773 26.2684 49.3093 26.2364ZM24.6133 29.4144C24.1743 29.4854 23.7353 29.5734 23.2983 29.6784C21.9303 30.0124 20.5293 30.7914 19.5533 34.2094C19.2943 35.1184 19.0513 36.1234 18.8423 37.1784C19.6613 36.3814 20.8193 35.6494 22.0713 35.1644C22.7383 33.8664 23.5523 32.6624 24.4983 31.5834C24.4103 30.8754 24.4273 30.1434 24.6133 29.4144ZM37.2313 37.5024C36.3533 35.1934 35.1784 33.0584 33.5634 31.6064C33.1444 31.7274 32.6934 31.9044 32.2114 32.1344C31.6044 32.4274 31.0244 32.7664 30.4824 33.1574C30.5074 33.2124 30.5323 33.2644 30.5543 33.3144C30.8373 33.9154 31.1043 34.4954 31.2983 35.0344C32.5893 38.6074 33.7794 42.7674 33.2664 47.1134C34.9324 45.7584 36.2233 44.1474 37.0373 42.3454C36.9763 41.8314 36.9434 41.3274 36.9304 40.8244C36.9044 39.6624 37.0053 38.5524 37.2313 37.5024ZM56.6313 47.5504C57.2563 47.3864 57.8254 46.7864 58.3284 45.7604C59.5524 43.2704 56.9784 38.1734 51.7734 32.7774C51.0804 32.0574 50.5134 31.5864 49.8724 31.4714C50.3354 32.3344 50.8483 33.2644 51.4203 34.2674C51.6233 34.6254 51.7853 34.9114 51.8943 35.1064C53.4703 37.9864 55.7473 42.7424 56.6313 47.5504ZM15.3834 51.9664C14.5254 50.8264 13.8863 49.5104 13.5383 48.0784C13.1213 46.3584 12.9783 44.5244 13.0023 42.7364C12.9093 45.0844 13.1714 47.5334 13.4694 49.7904C13.7424 51.0074 14.0924 52.2044 14.5164 53.3734C14.6394 53.7064 14.7703 54.0364 14.9123 54.3564L15.0453 54.0544L15.6243 53.6374C15.7963 53.5144 15.9724 53.3964 16.1464 53.2864C15.8754 52.8564 15.6194 52.4144 15.3834 51.9664ZM25.8004 47.3494C25.9074 46.9954 25.9963 46.6434 26.0693 46.2934C26.4053 44.6204 26.1253 42.2394 25.5543 40.8234C25.0773 43.0394 25.1704 45.2824 25.8004 47.3494ZM39.4094 49.7404C39.2574 49.4564 39.1133 49.1724 38.9753 48.8814C36.9423 51.2144 34.2653 53.1104 31.0883 54.4684C32.7873 55.7344 34.7174 56.7214 36.7864 57.5784C36.8664 57.5024 36.9483 57.4204 37.0283 57.3364C38.5133 55.7234 39.2284 52.6694 39.4094 49.7404ZM50.4033 50.5234C50.0943 50.2754 49.7893 50.0084 49.4883 49.7234C49.4773 50.8404 49.4093 51.9534 49.2723 53.0414C49.5343 53.2094 49.7713 53.3484 49.9863 53.4644C50.1993 52.5024 50.3413 51.5184 50.4033 50.5234ZM54.1233 61.5264C57.7373 58.8074 61.3744 54.2934 62.1564 49.5374C60.5344 51.8684 58.5433 52.5914 57.0543 52.7744C57.0163 52.7784 56.9753 52.7834 56.9343 52.7874C56.9203 52.9464 56.9033 53.1024 56.8813 53.2594C56.4783 56.4394 55.0953 57.9164 53.8213 58.5994C53.3873 59.6524 52.8834 60.6744 52.3074 61.6554C52.9094 61.6404 53.5173 61.5984 54.1233 61.5264ZM22.9473 60.3754C21.7083 59.4914 20.5393 58.5064 19.4683 57.4324C19.4313 57.4464 19.3943 57.4614 19.3613 57.4784C19.3443 57.6094 19.3443 57.7204 19.3563 57.7814C19.3433 57.7114 19.3013 57.6264 19.2363 57.5394C19.0363 57.6404 18.8473 57.7524 18.6733 57.8784L18.5023 57.6414L18.2753 58.6344C19.3403 59.5864 20.5603 60.5054 21.9203 61.4454C22.5583 61.8854 23.2633 62.3204 24.0193 62.7394C24.0053 62.7164 23.9904 62.6924 23.9744 62.6694C23.5184 61.9494 23.1763 61.1844 22.9473 60.3754ZM48.1623 58.3914C48.0863 58.3554 48.0084 58.3194 47.9324 58.2824C47.6794 58.8764 47.3963 59.4444 47.0753 59.9824C46.8873 60.2984 46.6853 60.6014 46.4783 60.8904C46.4943 60.8964 46.5114 60.9004 46.5294 60.9054C47.1414 60.1134 47.6883 59.2744 48.1623 58.3914Z" fill="#844889"/>
<path d="M35.4927 1.55728C35.9317 1.47828 36.4317 1.44928 36.9907 1.48728C39.6047 1.67528 41.0438 3.75628 41.8748 6.51228C42.3318 4.84428 43.3097 3.58328 44.6547 3.00028C45.5987 2.58428 47.5168 2.17727 49.7418 4.07927C50.0818 4.37127 50.4187 4.70628 50.7517 5.08628C51.0647 4.06028 51.6417 3.32627 52.5747 2.89727L54.1837 2.15628L55.4677 3.37828C62.1787 9.75628 64.7287 18.5493 66.7717 27.0113C66.9597 27.8033 67.1597 28.5963 67.3577 29.3943C68.7257 34.8793 70.1427 40.5503 69.4797 46.4893C69.2067 48.9283 68.7658 51.3303 68.3358 53.6523C67.9248 55.8803 67.5357 57.9853 67.2817 60.1353C66.7927 64.3053 65.4367 67.4803 63.0157 70.1293L61.4138 68.6673L61.2338 69.2823L60.4017 69.8103C57.8687 71.4133 55.7037 71.6833 53.9677 70.6173C52.9317 69.9813 52.2887 69.0243 51.9047 67.8693C51.1297 71.5533 49.9027 74.6793 47.2697 75.4553C46.0657 75.8133 44.2187 75.7733 42.2657 73.5743C40.0777 71.1143 39.1987 67.1443 39.6517 61.7753C40.0947 56.5003 40.2247 50.6113 40.0397 44.2733C39.7647 34.9263 39.1158 26.2543 38.1168 18.4993C38.0388 17.9043 37.9787 17.0203 37.9097 15.9723C37.8047 14.3743 37.5357 10.2553 36.8807 7.97027C36.8837 8.48327 36.8797 9.00728 36.8247 9.53028C36.4997 12.4763 36.4947 16.4873 36.8007 21.4473C37.1837 27.6113 36.8638 32.4753 35.6978 38.2273C34.8978 42.1573 34.9617 46.4133 35.8917 51.6183C36.2517 53.6263 36.7507 55.7143 37.2797 57.9243C38.3587 62.4333 39.4727 67.0933 39.4827 71.5553C39.4867 72.9593 39.4967 76.2493 37.0547 77.5763C35.5367 78.4053 33.7087 78.1363 31.6277 76.7833C27.7457 74.2563 26.1647 69.7213 25.0317 65.1943C24.8057 64.2863 24.5957 63.3713 24.4017 62.4543C24.3547 63.8143 24.0208 65.2163 23.1218 66.5703C21.6838 68.7343 19.8908 68.9243 18.9528 68.8453C16.9658 68.6783 15.1477 67.0473 13.9627 64.3703C12.2117 60.4093 12.3717 56.0783 12.7087 52.7443C12.9887 49.9693 12.7717 47.1913 12.5417 44.2473C12.4517 43.1073 12.3627 41.9643 12.3047 40.8193C12.1837 38.5363 11.9698 36.1673 11.7628 33.8773C11.5208 31.1823 11.2697 28.3973 11.1587 25.6673C11.1437 25.3343 11.1148 24.9443 11.0828 24.5213C10.8518 21.5173 10.5397 17.4073 13.3517 15.4583L15.2557 18.2113C15.3357 14.0563 15.8647 9.44927 19.3037 8.49427L20.8737 8.05628L21.9567 9.27828C25.5057 13.2843 25.7177 19.3863 25.9017 24.7693C25.9557 26.2993 26.0057 27.7483 26.1317 28.9923C26.4967 32.5283 26.7507 36.1623 26.9947 39.6753C27.5617 47.7653 28.1467 56.1283 30.0997 63.9273C30.8857 67.0763 31.9197 70.5603 34.2447 72.2453C34.2537 72.0513 34.2577 71.8243 34.2567 71.5673C34.2487 67.7143 33.2068 63.3563 32.1978 59.1403C31.6758 56.9543 31.1348 54.6953 30.7498 52.5393C29.6958 46.6643 29.6417 41.7863 30.5747 37.1883C31.6567 31.8443 31.9428 27.5203 31.5858 21.7713C31.2598 16.5123 31.2727 12.2033 31.6277 8.96128C31.6647 8.62428 31.6557 8.24228 31.6537 7.84828C31.6457 6.28528 31.6328 4.14528 33.2078 2.67128C33.6808 2.23328 34.4137 1.75028 35.4927 1.55728ZM52.5237 45.1573C52.5387 44.9493 52.5537 44.7443 52.5677 44.5363C52.8587 40.4773 53.1618 36.2833 53.2498 32.1253C53.3708 26.2243 52.2097 20.0303 49.8907 14.2113C48.5837 10.9353 47.5117 9.31428 46.8157 8.51728C46.8137 8.54628 46.8118 8.57627 46.8118 8.60627C46.7258 10.6673 47.0807 12.9443 47.4587 15.3583C47.7387 17.1663 48.0297 19.0383 48.1307 20.8623C48.3487 24.9443 49.3237 29.3533 50.2697 33.6183C50.7497 35.7893 51.2487 38.0393 51.6367 40.2073L51.9467 41.9153C52.1417 42.9873 52.3377 44.0683 52.5237 45.1573ZM63.4067 51.5933C63.7577 49.6643 64.0778 47.8063 64.2888 45.9113C64.8478 40.9053 63.5467 35.6953 62.2897 30.6583C62.0877 29.8473 61.8867 29.0403 61.6927 28.2343C60.4237 22.9703 58.9548 17.5813 56.3358 12.9713C56.4218 13.4713 56.5147 13.9953 56.6147 14.5513C56.7527 15.3033 56.8577 15.8983 56.9027 16.2323C57.2937 19.2003 58.1588 22.2053 58.9968 25.1103L59.4747 26.7813C60.2137 29.3963 60.3757 31.9953 60.5337 34.5113C60.6147 35.8233 60.6937 37.0633 60.8477 38.2763C61.1817 40.8983 61.7327 43.4643 62.3157 46.1783C62.6937 47.9493 63.0787 49.7563 63.4067 51.5933ZM22.9257 53.1993C22.4047 48.7963 22.0957 44.3803 21.7917 40.0393C21.5487 36.5653 21.2977 32.9763 20.9427 29.5253C20.7967 28.1043 20.7448 26.5713 20.6868 24.9483C20.6388 23.5313 20.5877 22.0523 20.4677 20.6143C20.4657 21.0463 20.4657 21.4243 20.4587 21.7193C20.4127 23.3313 20.2588 24.9543 20.1088 26.5283C19.8908 28.8183 19.6847 30.9843 19.7837 33.1183C20.0477 38.7673 21.2217 44.6563 22.3577 50.3523C22.5497 51.3043 22.7387 52.2523 22.9257 53.1993ZM45.9357 69.8023C46.3167 68.8913 46.8197 67.1153 47.3547 63.6443L47.4747 62.8903C48.0157 59.7203 48.1347 56.9343 48.1467 53.7263C48.1627 50.2483 47.5038 46.6593 46.8068 42.8553L46.4937 41.1293C46.1237 39.0653 45.6598 36.9683 45.1688 34.7473C45.0198 34.0803 44.8717 33.4083 44.7257 32.7363C44.9677 36.4053 45.1477 40.2063 45.2617 44.1183C45.4557 50.6533 45.3197 56.7403 44.8597 62.2123C44.5637 65.7203 44.9437 68.3863 45.9357 69.8023ZM19.0977 62.9403C19.3277 62.0133 19.1028 60.8213 18.7498 59.1583C18.6458 58.6633 18.5397 58.1713 18.4517 57.6803C18.2537 56.5583 18.0377 55.4293 17.8157 54.2973C17.6217 56.8053 17.6417 59.7663 18.7427 62.2533C18.8597 62.5183 18.9807 62.7463 19.0977 62.9403ZM56.9147 65.7883C57.1277 65.3303 57.3708 64.8933 57.6118 64.4633C57.9488 63.8573 58.2967 63.2333 58.4247 62.7553C58.9407 60.8433 59.0597 58.7973 58.8047 56.3173C58.5457 53.7683 58.0568 51.2803 57.5098 48.6963C57.3188 51.5713 57.1558 54.4803 57.0988 57.3593C57.0828 58.1163 56.9987 59.0103 56.9027 60.0453C56.7717 61.4473 56.4857 64.4793 56.7617 65.8613C56.8087 65.8403 56.8617 65.8173 56.9147 65.7883Z" fill="#8D5C93"/>
<path d="M6.80499 12.2552C15.248 10.7432 23.268 10.6472 31.759 10.5462C33.613 10.5262 35.481 10.5042 37.363 10.4662C42.93 10.3552 48.604 9.8622 54.088 9.3842C56.674 9.1582 59.256 8.9352 61.842 8.7442L62.801 8.6702C65.606 8.4412 68.784 8.1802 71.928 9.5752C74.481 10.7092 78.481 15.1742 76.701 19.3182C75.389 22.3682 71.012 22.8472 65.856 23.1302C65.23 23.1642 64.718 23.1892 64.408 23.2292C59.879 23.8312 55.367 24.1082 51.004 24.3752L47.934 24.5672C46.555 24.6582 45.166 24.7552 43.772 24.8542C45.472 24.8442 47.13 24.8862 48.751 24.9832C52.403 25.2002 56.002 24.9552 59.811 24.6922C63.501 24.4392 67.318 24.1782 71.175 24.3802C77.647 24.7212 79.306 28.0332 79.559 30.7532C79.768 32.9792 78.923 37.0012 70.956 38.9302C70.614 39.0112 70.274 39.0912 69.935 39.1662C70.167 39.1872 70.4 39.2102 70.631 39.2352C72.72 39.4612 77.817 40.3572 79.998 43.8322C80.752 45.0322 81.448 47.0252 80.491 49.7172L80.034 51.0012L78.721 51.3612C77.701 51.6402 76.605 52.2892 75.448 52.9772C74.46 53.5622 73.438 54.1692 72.321 54.6362C70.478 55.4092 68.577 55.7022 66.741 55.9932C66.247 56.0702 65.758 56.1462 65.275 56.2312C60.869 57.0222 56.734 57.0332 51.001 56.2762C38.906 54.6722 26.992 55.7282 15.826 56.9452C15.363 56.9972 14.762 57.0082 14.096 57.0142C13.367 57.0222 11.717 57.0392 11.139 57.2962C11.02 57.5782 11.072 57.7172 11.107 57.8092C11.335 58.4342 12.385 59.2772 13.447 59.6902C20.105 62.2802 27.59 63.7152 34.52 63.7262C37.274 63.7302 40.243 63.2222 43.111 62.7272L44.073 62.5612C46.748 62.1082 49.453 61.8432 52.071 61.5872C54.78 61.3222 57.581 61.0472 60.276 60.5662C61.127 60.4132 62.034 60.3052 62.961 60.1942C65.007 59.9532 67.119 59.7042 68.543 58.8742C69.293 58.4392 70.055 57.6242 70.863 56.7602C71.689 55.8802 72.543 54.9682 73.586 54.2182L76.633 58.4632C76.005 58.9142 75.359 59.5992 74.677 60.3312C73.694 61.3792 72.581 62.5662 71.174 63.3882C68.81 64.7642 66.028 65.0902 63.574 65.3812C62.753 65.4782 61.949 65.5692 61.193 65.7052C58.297 66.2262 55.391 66.5102 52.581 66.7872C49.935 67.0432 47.439 67.2892 44.944 67.7132L43.996 67.8762C40.908 68.4062 37.716 68.9562 34.512 68.9502C26.951 68.9372 18.799 67.3762 11.553 64.5572C9.55998 63.7832 7.108 62.0772 6.203 59.6132C5.603 57.9832 5.74698 56.2712 6.61798 54.6572C8.13298 51.8532 11.688 51.8192 14.045 51.7942C14.51 51.7882 14.935 51.7902 15.262 51.7542C26.744 50.5012 39.013 49.4182 51.688 51.0962C56.846 51.7792 60.517 51.7782 64.356 51.0892C64.874 50.9962 65.403 50.9152 65.934 50.8322C67.532 50.5812 69.045 50.3452 70.308 49.8182C71.088 49.4912 71.91 49.0022 72.784 48.4872C73.717 47.9312 74.672 47.3632 75.706 46.9082C75.672 46.7602 75.616 46.6712 75.579 46.6112C74.968 45.6392 72.6 44.7002 70.074 44.4292C64.684 43.8492 58.921 44.4252 53.349 44.9842C50.573 45.2612 47.703 45.5492 44.916 45.6892C41.237 45.8732 37.494 46.4812 33.873 47.0702C28.963 47.8692 23.886 48.6932 18.64 48.5542C14.105 48.4352 5.77198 47.5822 0.927979 43.2092L0 42.3702L0.0700073 41.1212C0.305007 37.0212 5.09895 36.6582 7.40295 36.4832C7.79695 36.4542 8.14301 36.4352 8.38501 36.3902C8.38901 36.3862 8.42299 36.3822 8.44299 36.3782C13.902 35.4042 19.462 35.5012 24.841 35.5952C27.592 35.6432 30.437 35.6932 33.185 35.5952C37.158 35.4502 41.116 35.5132 44.941 35.5712C53.476 35.7042 61.543 35.8292 69.73 33.8532C72.825 33.1042 74.424 31.9452 74.359 31.2352C74.307 30.6872 74.224 29.7722 70.902 29.5972C67.36 29.4092 63.866 29.6492 60.169 29.9032C56.361 30.1632 52.424 30.4332 48.44 30.1962C39.842 29.6842 29.991 30.7912 18.317 33.5792C14.708 34.4442 9.25298 35.7452 4.75098 33.3302C3.06698 32.4292 1.81297 30.7222 1.39197 28.7662C0.993968 26.9142 1.383 25.0982 2.492 23.6582C4.371 21.2102 7.65296 21.1602 10.051 21.1222C10.582 21.1162 11.077 21.1132 11.487 21.0672C12.125 21.0002 12.757 20.9242 13.387 20.8482C15.853 20.5562 18.404 20.2542 21.095 20.3802C28.235 20.7152 35.666 20.1932 42.851 19.6842C44.444 19.5682 46.028 19.4592 47.599 19.3552L50.689 19.1612C55.157 18.8882 59.375 18.6272 63.726 18.0482C64.124 17.9972 64.777 17.9562 65.578 17.9142C66.882 17.8412 70.672 17.6362 71.93 17.0282C71.845 16.2842 70.578 14.7112 69.81 14.3462C67.887 13.4922 65.52 13.6862 63.234 13.8732L62.228 13.9522C59.668 14.1392 57.107 14.3642 54.545 14.5862C48.976 15.0702 43.215 15.5712 37.473 15.6882C35.576 15.7252 33.695 15.7482 31.826 15.7682C23.557 15.8682 15.748 15.9582 7.72797 17.3932L6.80499 12.2552ZM33.55 25.5072C29.318 25.7142 25.06 25.7992 20.845 25.5992C18.586 25.4932 16.358 25.7582 13.998 26.0392C13.35 26.1172 12.696 26.1942 12.037 26.2632C11.442 26.3282 10.804 26.3372 10.125 26.3482C9.345 26.3592 6.972 26.3962 6.63 26.8412C6.468 27.0532 6.424 27.3332 6.495 27.6712C6.592 28.1202 6.88896 28.5552 7.21796 28.7322C9.96996 30.2062 14.265 29.1812 17.101 28.5042C22.988 27.0962 28.45 26.1012 33.55 25.5072ZM9.30597 41.5322C9.09697 41.5692 8.83996 41.6012 8.54596 41.6272C11.294 42.6232 14.841 43.2322 18.777 43.3352C23.531 43.4602 28.147 42.7092 33.035 41.9142C35.699 41.4802 38.426 41.0372 41.2 40.7462C38.605 40.7182 35.977 40.7212 33.373 40.8132C30.485 40.9172 27.567 40.8672 24.749 40.8192C19.386 40.7222 14.319 40.6342 9.36395 41.5212C9.34495 41.5262 9.33897 41.5292 9.30597 41.5322Z" fill="#946A9B"/>
<path d="M38.6819 2.22036C42.3369 1.56536 46.8439 5.98736 46.8919 6.03736C47.6369 6.78936 48.3419 7.57836 49.0059 8.39736C48.2779 6.72536 47.7179 4.99336 47.4949 3.21836L47.2039 0.887366L49.4919 0.351362C58.2549 -1.70464 63.1049 5.70336 66.6519 11.1094C67.1199 11.8224 67.5819 12.5284 68.0439 13.2014C69.6249 15.5084 70.8429 18.0444 72.0229 20.4984C72.3109 21.0954 72.5949 21.6894 72.8859 22.2784C73.0979 22.7094 73.3039 23.1464 73.5109 23.5784C74.1459 24.9224 74.7449 26.1884 75.4789 27.1964C75.7359 27.5514 76.0089 27.8924 76.2819 28.2344C77.0769 29.2304 77.9769 30.3594 78.6279 31.8364C80.2209 35.4664 80.5359 39.5854 80.8419 43.5664C81.1639 47.7644 81.4679 51.7274 83.1999 54.5504L79.0589 57.0924C79.1009 58.2264 78.9869 59.2924 78.6899 60.2744C78.1059 62.1994 76.8379 63.6754 75.0219 64.5404L73.6279 65.2024L72.3739 64.3024C69.6329 62.3324 68.2279 59.2244 66.9849 56.4794C66.3839 55.1484 65.8159 53.8894 65.1619 52.8924C62.4899 48.8154 60.1369 44.6114 58.3539 40.7304C56.7479 37.2324 55.3619 33.6814 54.0189 30.2474C52.0649 25.2444 50.2169 20.5214 47.7399 15.8914C46.5099 13.5934 45.0169 11.5704 43.1749 9.71036C42.5079 9.03636 41.0519 8.03236 40.0989 7.59136C39.8989 8.76536 40.0729 11.1004 40.5289 12.6424C41.1039 14.5914 42.3159 16.2614 43.5989 18.0324C44.4829 19.2534 45.3969 20.5154 46.1839 21.9594C47.9619 25.2224 49.8369 28.5134 51.6479 31.6934C56.9019 40.9194 62.3359 50.4634 66.1789 60.5844L66.3419 61.0064C67.0309 62.7624 68.3159 66.0284 66.1009 68.6654C64.8839 70.1134 63.1689 70.9184 61.3879 70.8704C59.6369 70.8264 58.0099 69.9764 56.9259 68.5414C54.5459 65.3934 52.5599 61.6514 50.6409 58.0344C50.1319 57.0774 49.6319 56.1334 49.1339 55.2224C46.9849 51.2924 44.9739 46.4224 43.3149 41.1404C42.6079 38.8864 41.9989 36.6274 41.4099 34.4444C39.8249 28.5564 38.3279 22.9964 35.0689 17.8984C34.0589 16.3234 32.8769 15.1044 31.5479 13.7864C31.1889 13.4304 30.8449 13.0594 30.5089 12.6904C29.9929 12.1284 29.5059 11.5964 29.0099 11.2194C28.5999 10.9044 28.3169 10.8614 28.2629 10.8654C28.2789 10.8674 28.1909 10.9574 28.0799 11.1584C27.3739 12.5074 28.3039 16.4604 30.2429 20.3554C31.4399 22.7614 32.7349 25.1884 33.9879 27.5374C35.6839 30.7214 37.4409 34.0124 39.0259 37.3764C40.4099 40.3064 42.1339 43.2714 43.8029 46.1394C46.1759 50.2144 48.6279 54.4274 50.3179 58.8684C50.4629 59.2454 50.6379 59.6794 50.8289 60.1494C52.5299 64.3424 55.3769 71.3604 50.9759 74.8544C49.6919 75.8704 48.1769 76.2364 46.5869 75.9084C41.8739 74.9394 37.6559 67.7554 34.0709 61.0954C33.7319 60.4684 33.4509 59.9454 33.2409 59.5814C28.7219 51.7254 26.1659 42.1794 24.1119 34.5084C22.3669 27.9974 18.6259 21.4104 15.1959 15.8254L15.0389 15.5704C13.7659 13.4854 13.0459 12.6404 12.6449 12.3214C12.0859 12.5744 11.1049 13.3934 10.7389 14.0214C10.0099 15.2544 10.5069 17.5054 10.9449 19.4924C11.0649 20.0304 11.1799 20.5564 11.2739 21.0544C12.0979 25.4474 14.5009 29.7094 16.8229 33.8274C17.2699 34.6214 17.7149 35.4074 18.1449 36.1944C20.5079 40.4904 23.2979 44.7434 25.9979 48.8544C28.3339 52.4114 30.7469 56.0884 32.9149 59.8344C33.0539 60.0744 33.2739 60.4194 33.5449 60.8474C36.5479 65.5844 39.6059 70.9514 37.8909 74.6514C37.4649 75.5684 36.3439 77.1584 33.6709 77.5294C29.7549 78.0704 26.8599 74.9404 24.9469 72.8674L24.4469 72.3344C21.0829 68.7624 18.4039 65.4384 16.4819 62.4554C12.2789 55.9204 9.79988 49.3984 7.17888 42.4924C6.76388 41.4014 6.3449 40.2994 5.9149 39.1884C4.1909 34.7264 3.0279 30.1584 2.4539 25.6134C2.0769 22.6104 1.9009 17.2334 4.9749 14.9464L5.15392 15.1864C5.21692 13.8914 5.51589 12.5924 6.23589 11.3714C7.14389 9.82736 10.2129 6.60336 13.4109 7.07936C16.0099 7.46536 17.8409 10.1434 19.4949 12.8484L19.6439 13.0924C23.2719 18.9984 27.2389 26.0014 29.1559 33.1594C31.1309 40.5354 33.5899 49.7124 37.7689 56.9774C37.9949 57.3724 38.3019 57.9384 38.6679 58.6224C44.7709 69.9574 47.1179 70.8094 47.6929 70.8014C48.6139 70.0564 48.0299 67.1464 45.9879 62.1154C45.7809 61.6024 45.5919 61.1344 45.4359 60.7264C43.8979 56.6874 41.6589 52.8394 39.2879 48.7674C37.5629 45.8024 35.7789 42.7374 34.3009 39.6034C32.7709 36.3564 31.0469 33.1234 29.3789 29.9954C28.1079 27.6134 26.7969 25.1524 25.5659 22.6834C23.8499 19.2394 21.2929 12.8424 23.4569 8.73036C24.2819 7.16236 25.5899 6.10536 27.1429 5.76536C28.8159 5.41136 30.5999 5.85736 32.1819 7.06736C33.0429 7.72836 33.7419 8.48836 34.3579 9.16036C34.5049 9.32136 34.6509 9.48336 34.8009 9.64336C34.6779 7.02636 35.1169 3.98636 37.4859 2.64836C37.8699 2.43236 38.2719 2.29436 38.6819 2.22036ZM75.8399 46.4904C75.7639 45.6494 75.6979 44.8044 75.6349 43.9684C75.3509 40.2594 75.0799 36.7544 73.8449 33.9374C73.4699 33.0854 72.8819 32.3474 72.1989 31.4914C71.8789 31.0914 71.5589 30.6884 71.2549 30.2684C70.2339 28.8674 69.4999 27.3154 68.7889 25.8154C68.5969 25.4074 68.3999 24.9954 68.1999 24.5874C67.9019 23.9834 67.6099 23.3734 67.3149 22.7624C66.1689 20.3804 65.0889 18.1304 63.7369 16.1564C63.2529 15.4514 62.7709 14.7164 62.2829 13.9744C59.1969 9.26936 56.7299 5.91136 53.3919 5.32736C54.1629 7.39036 55.3969 9.51136 56.6029 11.5824C57.3499 12.8654 58.1239 14.1924 58.7719 15.4894C60.9799 19.8994 63.4949 24.3724 65.9229 28.6984C67.1029 30.7974 68.2789 32.8904 69.4259 34.9824C69.7159 35.5134 70.1589 36.2534 70.6949 37.1504C72.5109 40.1924 74.3499 43.3784 75.8399 46.4904ZM33.1789 72.3124C33.2669 71.6264 32.8929 69.5734 29.1339 63.6404C28.8169 63.1404 28.5589 62.7294 28.3959 62.4494C26.3009 58.8314 23.9279 55.2174 21.6329 51.7214C18.8779 47.5244 16.0309 43.1864 13.5689 38.7104C13.1469 37.9424 12.7119 37.1694 12.2719 36.3934C10.8569 33.8784 9.41093 31.3154 8.24193 28.6264C8.83093 31.5364 9.6839 34.4424 10.7899 37.3064C11.2219 38.4244 11.6439 39.5354 12.0629 40.6394C14.5849 47.2794 16.9669 53.5534 20.8779 59.6284C22.6249 62.3414 25.1069 65.4124 28.2509 68.7494L28.7829 69.3224C30.0309 70.6714 31.7409 72.5234 32.9579 72.3554C33.0539 72.3424 33.1249 72.3284 33.1789 72.3124ZM73.7959 58.3054C74.5509 53.8024 68.5279 43.7104 66.2109 39.8274C65.6339 38.8604 65.1589 38.0634 64.8469 37.4924C63.7089 35.4174 62.5409 33.3394 61.3719 31.2584C59.8019 28.4644 58.1999 25.6124 56.6539 22.7364C57.4289 24.6174 58.1619 26.4944 58.8849 28.3474C60.1999 31.7114 61.5619 35.1934 63.1029 38.5514C64.7799 42.1984 67.0029 46.1684 69.5319 50.0294C70.4099 51.3684 71.0899 52.8744 71.7479 54.3294C72.3999 55.7764 73.0329 57.1754 73.7959 58.3054ZM61.6109 65.6404C61.8219 65.6034 62.0059 65.4184 62.1039 65.3054C62.2649 64.9094 61.6969 63.4614 61.4809 62.9164L61.2939 62.4374C57.5989 52.6934 52.2669 43.3324 47.1099 34.2784C46.8979 33.9074 46.6879 33.5364 46.4749 33.1634C47.0419 35.2684 47.6299 37.4454 48.2979 39.5724C49.8549 44.5344 51.7269 49.0774 53.7169 52.7144C54.2249 53.6444 54.7349 54.6074 55.2539 55.5854C57.0769 59.0224 58.9639 62.5744 61.0919 65.3904C61.2159 65.5524 61.3659 65.6434 61.5229 65.6464C61.5539 65.6514 61.5829 65.6474 61.6109 65.6404Z" fill="#C995B9"/>
</svg>
