<svg width="196" height="92" viewBox="0 0 196 92" fill="none" xmlns="http://www.w3.org/2000/svg">
<path d="M144.821 78.9735C146.536 78.2085 149.804 78.6905 151.779 78.7125C156.176 78.7625 171.588 85.7485 184.23 76.2235C189.192 72.4855 187.8 62.5475 183.324 59.0475C179.616 56.1475 174.112 54.8815 172.364 59.6775C170.144 65.7605 172.594 67.9265 176.866 68.5615C179.821 69.0005 197.723 67.8225 192.22 49.2115C187.089 31.8625 167.631 33.1835 170.142 14.7745C172.936 -5.72048 192.471 4.3225 194.083 5.4365" stroke="black" stroke-width="3" stroke-miterlimit="10" stroke-linecap="round" stroke-linejoin="round"/>
<path d="M48.9489 69.2565C48.9489 69.2565 114.708 14.1955 154.539 73.0755C154.539 73.0755 160.098 85.3485 145.002 87.6035C129.91 89.8575 36.6269 101.803 48.9489 69.2565Z" fill="#949698"/>
<path d="M49.7609 45.0353C49.7609 45.0353 35.6179 43.3633 32.4969 52.2173C29.3749 61.0703 41.2699 69.8223 41.2699 69.8223L53.0809 66.1483L49.7609 45.0353Z" fill="#585A5B"/>
<path d="M18.1696 75.9843C18.1696 75.9843 47.7546 64.6793 48.4686 63.0643C48.4686 63.0643 34.8436 33.1233 61.7586 42.4833C86.9266 51.2393 75.3666 65.1943 75.3666 65.1943L77.8346 68.4563C77.8346 68.4563 80.9526 73.4473 79.0706 82.8323C76.2536 96.8603 19.2466 92.9503 16.0706 79.1793C12.8956 65.4073 18.1696 75.9843 18.1696 75.9843Z" fill="#818385"/>
<path d="M0.12115 73.8922C-0.77685 77.5892 3.41415 81.7822 9.48015 83.2552C15.5491 84.7282 21.1971 82.9232 22.0911 79.2272C22.9881 75.5302 18.7982 71.3382 12.7312 69.8652C6.66515 68.3922 1.01815 70.1952 0.12115 73.8922Z" fill="black"/>
<path d="M69.9934 62.7293C69.9934 62.7293 75.6784 53.4003 66.8264 50.3953C57.9754 47.3903 50.9404 46.2873 51.0004 55.3853C51.0614 64.4823 56.3704 63.7773 56.3704 63.7773L69.9934 62.7293Z" fill="#585A5B"/>
<path d="M43.4024 71.3225C43.4094 72.5405 44.4034 73.5205 45.6194 73.5115C46.8364 73.5025 47.8154 72.5105 47.8074 71.2935C47.7984 70.0775 46.8074 69.0975 45.5884 69.1045C44.3744 69.1145 43.3924 70.1065 43.4024 71.3225Z" fill="black"/>
<path d="M88.9025 24.4214C88.9345 29.0474 92.8145 32.7694 97.5695 32.7384C99.6035 32.7254 101.463 32.0234 102.929 30.8674L103.045 48.5804C103.045 48.5804 105.903 49.5794 108.094 47.8904L107.981 30.8884C109.45 31.9914 111.292 32.6474 113.29 32.6344C118.045 32.6024 121.875 28.8284 121.846 24.2024C121.816 19.5794 117.936 15.8564 113.179 15.8874C109.672 15.9104 106.677 17.9724 105.353 20.9054C103.99 17.9904 100.965 15.9694 97.4595 15.9924C92.7035 16.0234 88.8735 19.7984 88.9025 24.4214ZM109.048 24.3444C109.033 21.9584 110.954 20.0094 113.343 19.9944C115.73 19.9774 117.676 21.9004 117.693 24.2864C117.708 26.6754 115.788 28.6214 113.4 28.6384C111.012 28.6544 109.063 26.7324 109.048 24.3444ZM105.384 27.7484C105.389 27.7394 105.394 27.7304 105.399 27.7214C105.403 27.7314 105.409 27.7394 105.413 27.7484H105.384ZM93.1705 24.4494C93.1545 22.0644 95.0765 20.1144 97.4645 20.1004C99.8505 20.0834 101.8 22.0064 101.815 24.3924C101.832 26.7804 99.9085 28.7274 97.5225 28.7444C95.1335 28.7604 93.1855 26.8374 93.1705 24.4494Z" fill="#CCA681"/>
</svg>
