<svg width="152" height="157" viewBox="0 0 152 157" fill="none" xmlns="http://www.w3.org/2000/svg">
<path d="M64.8756 94.7116C78.5576 77.4866 82.9576 84.6336 86.1386 79.5076C89.3186 74.3816 80.3416 73.5716 80.3416 73.5716L79.2196 58.1806C94.8216 45.4516 129.093 17.2086 129.093 17.2086C129.093 17.2086 138.337 11.6286 147.059 22.0986C155.781 32.5686 149.805 43.9066 137.635 56.5246C125.805 68.7916 93.0616 94.7006 81.7696 87.2206L20.9496 150.286C20.9496 150.286 11.9826 159.736 6.55859 155.498C4.99859 154.28 3.51359 153.179 2.35059 152.001C23.4756 149.851 52.6916 110.049 64.8756 94.7116Z" fill="#9A8870"/>
<path d="M3.5353 138.868C10.4933 129.304 69.8623 74.7967 69.8623 74.7967C69.8623 74.7967 66.0903 68.6717 72.2553 63.8197C73.3513 62.9587 75.8533 60.9287 79.2203 58.1807L80.3423 73.5717C80.3423 73.5717 89.3193 74.3817 86.1393 79.5077C82.9583 84.6337 78.5583 77.4867 64.8763 94.7117C52.6913 110.049 23.4763 149.852 2.35128 152.001C-0.534724 149.079 -1.4247 145.685 3.5353 138.868Z" fill="#B7A183"/>
<path d="M130.504 0.900391L137.902 26.5214C137.902 26.5214 124.153 57.4624 80.3408 73.5714L58.2998 58.4294L130.504 0.900391Z" fill="#211915"/>
<path d="M5.02196 143.421C5.91296 144.346 9.14395 142.68 12.2399 139.699C15.3359 136.718 17.1249 133.553 16.2349 132.628C15.3439 131.702 12.1119 133.369 9.01595 136.35C5.91895 139.33 4.13096 142.496 5.02196 143.421Z" fill="#5B4B35"/>
<mask id="mask0_211_820" style="mask-type:luminance" maskUnits="userSpaceOnUse" x="58" y="0" width="80" height="74">
<path d="M130.504 0.900391L137.902 26.5214C137.902 26.5214 124.153 57.4624 80.3408 73.5714L58.2998 58.4294L130.504 0.900391Z" fill="white"/>
</mask>
<g mask="url(#mask0_211_820)">
<path d="M108.727 61.7825L83.0645 37.4635L87.1095 34.1245L110.716 59.6575L114.621 57.2535L90.1755 31.2805L92.6385 29.1565L117.576 55.4875L119.793 53.3145L95.5445 26.7385L97.9605 24.7655L122.29 51.0135L125.591 48.0965L100.763 22.6315L102.008 20.9545L126.885 45.6265L129.806 42.1395L129.664 41.9945L106.036 17.9105L108.202 15.9785L131.767 40.3295L134.159 38.8565L112.241 14.5145L115.525 11.7455L134.134 36.9825L134.807 34.1475L134.755 34.0665L118.401 8.61849L121.513 6.70049L135.578 33.1375L137.763 31.7915L123.007 2.19749L126.089 -1.06651L137.862 29.6175L138.283 29.4585L126.253 -1.89551L122.465 2.11749L137.177 31.6245L135.749 32.5045L121.685 6.06649L117.773 8.47549L134.327 34.2285L133.918 35.9355L115.602 11.0925L111.596 14.4715L133.462 38.7565L131.839 39.7565L108.224 15.3565L105.384 17.8895L105.551 18.0565L129.198 42.1635L126.854 44.9635L101.954 20.2685L100.173 22.6705L124.939 48.0705L122.323 50.3865L98.0035 24.1505L94.8925 26.6905L119.168 53.2965L117.587 54.8475L92.6695 28.5365L89.5265 31.2475L113.915 57.1605L110.794 59.0815L87.1515 33.5075L82.3855 37.4395L107.905 61.6225L105.246 62.6715L79.2895 38.9875L76.4515 41.5225L76.6365 41.6905L102.522 65.0065L99.5085 66.8615L74.3245 43.7265L70.8195 46.3485L97.0915 68.3495L94.7825 69.7715L68.8435 48.7795L65.8215 50.6405L91.8085 70.6575L89.0855 71.5195L62.9335 51.8135L60.4395 54.4595L86.8135 72.9175L84.4985 73.7485L58.5345 54.8755L58.2705 55.2395L84.4275 74.2525L87.7815 73.0475L61.1225 54.3895L62.9845 52.4155L88.9995 72.0195L92.7635 70.8255L66.6135 50.6815L68.8095 49.3295L94.7465 70.3205L97.8585 68.4045L71.5425 46.3685L74.2935 44.3085L99.4545 67.4225L103.268 65.0735L77.1235 41.5235L79.2875 39.5935L105.148 63.1915L108.727 61.7825Z" fill="#231F20"/>
</g>
<path d="M57.8772 58.0365C61.0052 62.0145 79.7992 52.4465 99.8552 36.6695C119.911 20.8915 133.632 4.87749 130.504 0.900494C127.375 -3.07651 108.581 6.49149 88.5262 22.2685C68.4702 38.0465 54.7482 54.0605 57.8772 58.0365Z" fill="#414042"/>
</svg>
