<svg width="145" height="102" viewBox="0 0 145 102" fill="none" xmlns="http://www.w3.org/2000/svg">
<path d="M75.6466 21.6069C75.6466 21.6069 61.7006 7.13685 73.3236 6.09785C84.9436 5.05585 85.7316 17.2869 75.6466 21.6069Z" fill="#564134"/>
<path d="M84.0533 17.5136C84.0533 17.5136 70.1072 3.04263 81.7292 2.00263C93.3502 0.960634 94.1413 13.1926 84.0533 17.5136Z" fill="#493429"/>
<path d="M87.2687 23.7196C87.2687 23.7196 73.3227 9.25063 84.9457 8.21163C96.5677 7.16963 97.3577 19.3996 87.2687 23.7196Z" fill="#634C3F"/>
<path d="M59.1202 25.0826C59.1202 25.0826 45.1753 10.6116 56.7933 9.57164C68.4163 8.53264 69.2072 20.7596 59.1202 25.0826Z" fill="#564134"/>
<path d="M67.5271 20.9897C67.5271 20.9897 53.58 6.52069 65.201 5.47569C76.824 4.43869 77.6141 16.6687 67.5271 20.9897Z" fill="#493429"/>
<path d="M81.6122 29.2834C81.6122 29.2834 67.6662 14.8154 79.2872 13.7714C90.9062 12.7314 91.6952 24.9624 81.6122 29.2834Z" fill="#493429"/>
<path d="M70.7427 27.1974C70.7427 27.1974 56.7947 12.7294 68.4157 11.6864C80.0387 10.6474 80.8297 22.8774 70.7427 27.1974Z" fill="#634C3F"/>
<path d="M53.3797 19.6656C53.3797 19.6656 39.4297 5.19864 51.0517 4.15464C62.6727 3.11564 63.4647 15.3456 53.3797 19.6656Z" fill="#564134"/>
<path d="M61.7847 15.5735C61.7847 15.5735 47.8387 1.10246 59.4607 0.0624638C71.0797 -0.977536 71.8717 11.2535 61.7847 15.5735Z" fill="#493429"/>
<path d="M64.9994 21.7805C64.9994 21.7805 51.0524 7.30949 62.6714 6.26949C74.2984 5.22949 75.0904 17.4615 64.9994 21.7805Z" fill="#634C3F"/>
<path d="M36.8462 23.1456C36.8462 23.1456 22.9002 8.67464 34.5222 7.63264C46.1462 6.58964 46.9322 18.8206 36.8462 23.1456Z" fill="#564134"/>
<path d="M45.2551 19.0483C45.2551 19.0483 31.3091 4.58026 42.9291 3.53926C54.5541 2.49726 55.3431 14.7293 45.2551 19.0483Z" fill="#564238"/>
<path d="M59.3429 27.3412C59.3429 27.3412 45.3949 12.8742 57.0169 11.8332C68.6359 10.7912 69.4299 23.0202 59.3429 27.3412Z" fill="#493429"/>
<path d="M48.4694 25.2573C48.4694 25.2573 34.5275 10.7883 46.1455 9.74727C57.7665 8.70527 58.5554 20.9353 48.4694 25.2573Z" fill="#634C3F"/>
<path d="M44.824 24.9176C44.824 24.9176 31.909 10.4286 42.646 9.4056C53.388 8.3836 54.136 20.6136 44.824 24.9176Z" fill="#564134"/>
<path d="M52.5864 20.8357C52.5864 20.8357 39.6725 6.34765 50.4135 5.32465C61.1535 4.30165 61.9054 16.5337 52.5864 20.8357Z" fill="#5B4031"/>
<path d="M55.5663 27.0508C55.5663 27.0508 42.6573 12.5629 53.3973 11.5389C64.1383 10.5129 64.8873 22.7468 55.5663 27.0508Z" fill="#634C3F"/>
<path d="M31.0063 30.2767C31.0063 30.2767 18.0904 15.7887 28.8304 14.7637C39.5754 13.7397 40.3233 25.9717 31.0063 30.2767Z" fill="#564134"/>
<path d="M37.3131 24.2875C37.3131 24.2875 24.4011 9.79953 35.1401 8.77453C45.8801 7.75453 46.6291 19.9815 37.3131 24.2875Z" fill="#493429"/>
<path d="M50.3472 32.6056C50.3472 32.6056 37.4282 18.1166 48.1722 17.0926C58.9122 16.0666 59.6612 28.2996 50.3472 32.6056Z" fill="#493429"/>
<path d="M40.2968 30.5025C40.2968 30.5025 27.3828 16.0125 38.1228 14.9875C48.8648 13.9665 49.6128 26.1955 40.2968 30.5025Z" fill="#634C3F"/>
<path d="M99.2192 22.2321C99.2192 22.2321 85.2733 7.76205 96.8953 6.72105C108.513 5.68205 109.305 17.9101 99.2192 22.2321Z" fill="#564134"/>
<path d="M106.926 22.0742C106.926 22.0742 92.9792 7.6042 104.598 6.5622C116.222 5.5202 117.013 17.7532 106.926 22.0742Z" fill="#3F2A20"/>
<path d="M116.324 27.3254C116.324 27.3254 102.378 12.8534 114.001 11.8144C125.62 10.7744 126.412 23.0034 116.324 27.3254Z" fill="#634C3F"/>
<path d="M82.6901 25.7081C82.6901 25.7081 68.7431 11.2411 80.3641 10.1971C91.9861 9.15812 92.7761 21.3871 82.6901 25.7081Z" fill="#564134"/>
<path d="M91.0964 21.6163C91.0964 21.6163 77.1514 7.14527 88.7734 6.10227C100.396 5.06427 101.183 17.2943 91.0964 21.6163Z" fill="#493429"/>
<path d="M105.182 29.9093C105.182 29.9093 91.2333 15.4383 102.853 14.3943C114.477 13.3563 115.266 25.5873 105.182 29.9093Z" fill="#493429"/>
<path d="M94.3096 27.8202C94.3096 27.8202 80.3676 13.3522 91.9876 12.3112C103.613 11.2692 104.399 23.5022 94.3096 27.8202Z" fill="#634C3F"/>
<path d="M75.8349 30.8807C75.8349 30.8807 61.8909 16.4107 73.5129 15.3697C85.1329 14.3247 85.9249 26.5587 75.8349 30.8807Z" fill="#564134"/>
<path d="M84.2463 26.7857C84.2463 26.7857 70.3003 12.3157 81.9233 11.2747C93.5423 10.2317 94.3313 22.4647 84.2463 26.7857Z" fill="#493429"/>
<path d="M87.4627 32.9949C87.4627 32.9949 73.5127 18.5249 85.1347 17.4839C96.7587 16.4389 97.5467 28.6739 87.4627 32.9949Z" fill="#634C3F"/>
<path d="M59.3079 34.3588C59.3079 34.3588 45.361 19.8868 56.983 18.8458C68.605 17.8048 69.3969 30.0338 59.3079 34.3588Z" fill="#564134"/>
<path d="M67.7165 30.2656C67.7165 30.2656 53.7694 15.7906 65.3934 14.7536C77.0124 13.7116 77.8045 25.9406 67.7165 30.2656Z" fill="#493429"/>
<path d="M81.8053 38.5578C81.8053 38.5578 67.8563 24.0868 79.4793 23.0468C91.1003 22.0068 91.8903 34.2358 81.8053 38.5578Z" fill="#493429"/>
<path d="M70.9314 36.4697C70.9314 36.4697 56.9864 21.9997 68.6054 20.9597C80.2314 19.9177 81.0194 32.1487 70.9314 36.4697Z" fill="#634C3F"/>
<path d="M105.388 31.5175C105.388 31.5175 91.4422 17.0505 103.064 16.0075C114.686 14.9655 115.476 27.1955 105.388 31.5175Z" fill="#564134"/>
<path d="M113.794 27.4225C113.794 27.4225 99.8487 12.9535 111.471 11.9115C123.094 10.8725 123.883 23.1025 113.794 27.4225Z" fill="#493429"/>
<path d="M117.014 33.6317C117.014 33.6317 103.068 19.1627 114.688 18.1217C126.31 17.0807 127.099 29.3107 117.014 33.6317Z" fill="#634C3F"/>
<path d="M88.8587 34.9964C88.8587 34.9964 74.9117 20.5244 86.5337 19.4814C98.1567 18.4414 98.9447 30.6724 88.8587 34.9964Z" fill="#564134"/>
<path d="M97.2675 30.9003C97.2675 30.9003 83.3206 16.4283 94.9436 15.3883C106.566 14.3473 107.356 26.5773 97.2675 30.9003Z" fill="#493429"/>
<path d="M111.354 39.1934C111.354 39.1934 97.4078 24.7254 109.028 23.6804C120.652 22.6424 121.439 34.8684 111.354 39.1934Z" fill="#493429"/>
<path d="M100.485 37.1103C100.485 37.1103 86.5389 22.6383 98.1609 21.5963C109.779 20.5553 110.571 32.7853 100.485 37.1103Z" fill="#634C3F"/>
<path d="M42.038 31.5727C42.038 31.5727 28.094 17.1037 39.716 16.0627C51.338 15.0207 52.126 27.2517 42.038 31.5727Z" fill="#564134"/>
<path d="M50.4471 27.4795C50.4471 27.4795 36.5011 13.0085 48.1251 11.9705C59.7461 10.9275 60.5361 23.1605 50.4471 27.4795Z" fill="#493429"/>
<path d="M53.6659 33.6877C53.6659 33.6877 39.7199 19.2177 51.3409 18.1777C62.9609 17.1377 63.7529 29.3657 53.6659 33.6877Z" fill="#634C3F"/>
<path d="M25.5118 35.0497C25.5118 35.0497 11.5668 20.5807 23.1878 19.5377C34.8068 18.4967 35.5988 30.7277 25.5118 35.0497Z" fill="#564134"/>
<path d="M33.9218 30.9554C33.9218 30.9554 19.9749 16.4874 31.5979 15.4434C43.2209 14.4024 44.0088 26.6364 33.9218 30.9554Z" fill="#493429"/>
<path d="M48.0037 39.2505C48.0037 39.2505 34.0617 24.7816 45.6767 23.7396C57.3017 22.6966 58.0917 34.9305 48.0037 39.2505Z" fill="#493429"/>
<path d="M37.1378 37.1647C37.1378 37.1647 23.1898 22.6947 34.8118 21.6517C46.4328 20.6087 47.2218 32.8447 37.1378 37.1647Z" fill="#634C3F"/>
<path d="M4.27051 85.8504L13.1575 29.8574C13.1575 29.8574 56.6645 36.9984 69.0725 35.1324C81.4855 33.2734 127.94 27.5034 127.94 27.5034L140.398 86.6694L65.4675 95.1904L4.27051 85.8504Z" fill="#DB2363"/>
<path d="M72.9606 41.9375C39.9326 42.6125 15.4646 36.2684 13.9586 35.8714C10.6056 34.9774 8.61455 31.5445 9.50555 28.1935C10.3966 24.8485 13.8356 22.8555 17.1786 23.7485C17.9236 23.9385 70.0766 37.3225 123.383 22.0505C126.719 21.0975 130.19 23.0225 131.144 26.3535C132.096 29.6825 130.175 33.1565 126.841 34.1105C107.948 39.5245 89.3896 41.5995 72.9606 41.9375Z" fill="#AF1A55"/>
<path d="M75.6589 101.374C32.8909 102.253 5.67492 92.2836 4.06392 91.6826C0.820915 90.4566 -0.815096 86.8415 0.402904 83.6025C1.6239 80.3585 5.2389 78.7246 8.4759 79.9356C9.0069 80.1356 62.3749 99.5076 136.399 80.2506C139.748 79.3746 143.18 81.3885 144.045 84.7405C144.919 88.0925 142.908 91.5165 139.555 92.3875C115.862 98.5545 94.2879 100.992 75.6589 101.374Z" fill="#AF1A55"/>
<path d="M77.2957 50.4762C64.7247 51.6452 54.9407 58.1532 49.9767 62.1782C48.7347 57.5142 45.2767 48.6162 36.8507 48.0732C36.8507 48.0732 38.4757 51.4662 38.6947 54.5432C38.8557 56.8012 37.8277 63.2032 42.6877 65.1022C38.7967 66.8042 38.5947 72.3482 38.0687 74.3412C37.2797 77.3212 35.0537 80.3472 35.0537 80.3472C43.1247 81.3582 48.1047 73.8852 50.3307 69.4492C55.4987 74.0672 65.5927 80.9442 79.6397 80.5512C100.676 79.9672 109.504 62.6232 109.504 62.6232C109.504 62.6232 95.7437 48.7602 77.2957 50.4762Z" fill="white"/>
</svg>
