<svg width="122" height="163" viewBox="0 0 122 163" fill="none" xmlns="http://www.w3.org/2000/svg">
<path d="M27.2464 83.4131L3.90039 83.6751L4.3614 159.111L42.4924 160.134C14.3834 119.971 21.6584 94.0671 27.2464 83.4131Z" fill="#A95149"/>
<path d="M54.8141 83.106L27.2451 83.4139C21.6581 94.0669 14.3821 119.972 42.4911 160.135L55.7461 160.49L54.8141 83.106Z" fill="#DB2363"/>
<path d="M27.2464 83.4131L3.90039 83.6751L4.3614 159.111L42.4924 160.134C14.3834 119.971 21.6584 94.0671 27.2464 83.4131Z" fill="#AF1A55"/>
<path d="M50.8639 120.738C51.6149 132.515 42.7299 142.669 31.0139 143.417C19.2989 144.163 9.19193 135.225 8.43993 123.447C7.68793 111.673 16.5739 101.519 28.2909 100.769C40.0049 100.021 50.1119 108.959 50.8639 120.738Z" fill="white"/>
<path d="M31.07 144.305C18.884 145.081 8.33398 135.749 7.55198 123.503C6.76898 111.257 16.049 100.658 28.232 99.8832C40.417 99.1052 50.966 108.433 51.749 120.679C52.533 132.927 43.256 143.524 31.07 144.305ZM28.347 101.657C17.141 102.374 8.60699 112.123 9.32599 123.391C10.045 134.66 19.749 143.247 30.956 142.53C42.163 141.813 50.695 132.063 49.975 120.795C49.256 109.528 39.553 100.942 28.347 101.657Z" fill="#91174D"/>
<path d="M25.1231 119.717C25.2043 119.717 25.2742 119.749 25.3328 119.812L25.9013 120.435C25.5043 120.904 25.0193 121.267 24.4463 121.524C23.8779 121.781 23.1921 121.91 22.3891 121.91C21.6853 121.91 21.0469 121.788 20.4739 121.545C19.9055 121.301 19.4183 120.96 19.0122 120.523C18.6107 120.085 18.2994 119.562 18.0783 118.953C17.8573 118.344 17.7467 117.674 17.7467 116.943C17.7467 116.212 17.8618 115.542 18.0919 114.933C18.3265 114.324 18.6536 113.801 19.0731 113.363C19.4927 112.925 19.9935 112.585 20.5755 112.341C21.162 112.098 21.8094 111.976 22.5177 111.976C23.2079 111.976 23.8215 112.088 24.3584 112.314C24.8952 112.54 25.3622 112.84 25.7592 113.214L25.2855 113.884C25.2539 113.934 25.2133 113.974 25.1637 114.006C25.1185 114.037 25.0576 114.053 24.9809 114.053C24.8952 114.053 24.7937 114.01 24.6764 113.925C24.5636 113.839 24.4125 113.744 24.223 113.64C24.038 113.532 23.8079 113.435 23.5327 113.349C23.2575 113.264 22.9147 113.221 22.5041 113.221C22.0214 113.221 21.5793 113.307 21.1777 113.478C20.7762 113.645 20.4288 113.889 20.1356 114.209C19.8469 114.525 19.6213 114.915 19.4589 115.38C19.301 115.84 19.222 116.361 19.222 116.943C19.222 117.534 19.3055 118.059 19.4724 118.52C19.6393 118.98 19.8694 119.37 20.1627 119.69C20.4559 120.011 20.801 120.254 21.198 120.421C21.5951 120.588 22.0237 120.672 22.4838 120.672C22.7635 120.672 23.0139 120.656 23.235 120.624C23.4606 120.588 23.6658 120.536 23.8508 120.469C24.0403 120.401 24.2185 120.315 24.3854 120.211C24.5523 120.103 24.717 119.975 24.8794 119.826C24.9155 119.794 24.9539 119.769 24.9945 119.751C25.0351 119.729 25.0779 119.717 25.1231 119.717ZM32.5131 118.181L31.0717 114.412C30.9679 114.155 30.8641 113.83 30.7604 113.437C30.7108 113.631 30.6589 113.812 30.6047 113.979C30.5551 114.146 30.5055 114.295 30.4559 114.425L29.0212 118.181H32.5131ZM35.3621 121.802H34.2523C34.126 121.802 34.0222 121.77 33.941 121.707C33.8598 121.644 33.8011 121.563 33.765 121.463L32.9056 119.21H28.6219L27.7625 121.463C27.7309 121.549 27.6723 121.628 27.5865 121.7C27.5008 121.768 27.3971 121.802 27.2752 121.802H26.1654L30.0363 112.084H31.4912L35.3621 121.802ZM42.2488 113.289H39.163V121.802H37.7283V113.289H34.6289V112.084H42.2488V113.289Z" fill="#161616"/>
<path d="M19.644 132.99V127.822L18.832 127.77C18.7237 127.758 18.6696 127.71 18.6696 127.625V127.398H19.644V126.668C19.644 126.339 19.6866 126.051 19.7716 125.803C19.8567 125.552 19.9766 125.343 20.1312 125.177C20.2859 125.011 20.4715 124.887 20.688 124.806C20.9046 124.721 21.1443 124.678 21.4073 124.678C21.5271 124.678 21.647 124.69 21.7669 124.713C21.8906 124.732 22.0008 124.761 22.0975 124.8L22.0801 125.067C22.0723 125.102 22.0549 125.125 22.0279 125.136C22.0047 125.144 21.9699 125.148 21.9235 125.148C21.8771 125.144 21.8171 125.138 21.7437 125.131C21.6702 125.119 21.5851 125.113 21.4885 125.113C21.299 125.113 21.1231 125.142 20.9607 125.2C20.8021 125.254 20.6648 125.343 20.5488 125.467C20.4328 125.591 20.342 125.753 20.2762 125.954C20.2144 126.151 20.1834 126.395 20.1834 126.685V127.398H22.0569V127.81H20.2008V132.99H19.644ZM25.3141 127.126C25.7279 127.126 26.0971 127.197 26.4219 127.34C26.7506 127.48 27.0271 127.679 27.2514 127.938C27.4756 128.197 27.6458 128.51 27.7618 128.877C27.8817 129.241 27.9416 129.649 27.9416 130.101C27.9416 130.554 27.8817 130.962 27.7618 131.325C27.6458 131.689 27.4756 132 27.2514 132.259C27.0271 132.518 26.7506 132.717 26.4219 132.856C26.0971 132.996 25.7279 133.065 25.3141 133.065C24.9004 133.065 24.5292 132.996 24.2005 132.856C23.8757 132.717 23.5992 132.518 23.3711 132.259C23.1468 132 22.9747 131.689 22.8549 131.325C22.7389 130.962 22.6809 130.554 22.6809 130.101C22.6809 129.649 22.7389 129.241 22.8549 128.877C22.9747 128.51 23.1468 128.197 23.3711 127.938C23.5992 127.679 23.8757 127.48 24.2005 127.34C24.5292 127.197 24.9004 127.126 25.3141 127.126ZM25.3141 132.63C25.6583 132.63 25.9579 132.572 26.2131 132.456C26.4722 132.336 26.6868 132.166 26.857 131.946C27.031 131.725 27.1605 131.46 27.2456 131.151C27.3306 130.838 27.3732 130.488 27.3732 130.101C27.3732 129.718 27.3306 129.37 27.2456 129.057C27.1605 128.744 27.031 128.477 26.857 128.257C26.6868 128.033 26.4722 127.86 26.2131 127.741C25.9579 127.621 25.6583 127.561 25.3141 127.561C24.97 127.561 24.6684 127.621 24.4093 127.741C24.1541 127.86 23.9395 128.033 23.7655 128.257C23.5953 128.477 23.4658 128.744 23.3769 129.057C23.2918 129.37 23.2493 129.718 23.2493 130.101C23.2493 130.488 23.2918 130.838 23.3769 131.151C23.4658 131.46 23.5953 131.725 23.7655 131.946C23.9395 132.166 24.1541 132.336 24.4093 132.456C24.6684 132.572 24.97 132.63 25.3141 132.63ZM31.7826 127.126C32.1964 127.126 32.5657 127.197 32.8905 127.34C33.2191 127.48 33.4956 127.679 33.7199 127.938C33.9442 128.197 34.1143 128.51 34.2303 128.877C34.3502 129.241 34.4101 129.649 34.4101 130.101C34.4101 130.554 34.3502 130.962 34.2303 131.325C34.1143 131.689 33.9442 132 33.7199 132.259C33.4956 132.518 33.2191 132.717 32.8905 132.856C32.5657 132.996 32.1964 133.065 31.7826 133.065C31.3689 133.065 30.9977 132.996 30.669 132.856C30.3442 132.717 30.0677 132.518 29.8396 132.259C29.6153 132 29.4433 131.689 29.3234 131.325C29.2074 130.962 29.1494 130.554 29.1494 130.101C29.1494 129.649 29.2074 129.241 29.3234 128.877C29.4433 128.51 29.6153 128.197 29.8396 127.938C30.0677 127.679 30.3442 127.48 30.669 127.34C30.9977 127.197 31.3689 127.126 31.7826 127.126ZM31.7826 132.63C32.1268 132.63 32.4265 132.572 32.6817 132.456C32.9407 132.336 33.1553 132.166 33.3255 131.946C33.4995 131.725 33.629 131.46 33.7141 131.151C33.7992 130.838 33.8417 130.488 33.8417 130.101C33.8417 129.718 33.7992 129.37 33.7141 129.057C33.629 128.744 33.4995 128.477 33.3255 128.257C33.1553 128.033 32.9407 127.86 32.6817 127.741C32.4265 127.621 32.1268 127.561 31.7826 127.561C31.4385 127.561 31.1369 127.621 30.8778 127.741C30.6226 127.86 30.408 128.033 30.234 128.257C30.0639 128.477 29.9343 128.744 29.8454 129.057C29.7603 129.37 29.7178 129.718 29.7178 130.101C29.7178 130.488 29.7603 130.838 29.8454 131.151C29.9343 131.46 30.0639 131.725 30.234 131.946C30.408 132.166 30.6226 132.336 30.8778 132.456C31.1369 132.572 31.4385 132.63 31.7826 132.63ZM39.9042 128.46C39.6838 128.127 39.4383 127.893 39.1676 127.758C38.9008 127.623 38.5953 127.555 38.2512 127.555C37.9109 127.555 37.6132 127.617 37.3579 127.741C37.1027 127.864 36.8881 128.04 36.7141 128.268C36.544 128.493 36.4145 128.763 36.3255 129.08C36.2405 129.394 36.1979 129.74 36.1979 130.119C36.1979 130.977 36.3545 131.609 36.6677 132.015C36.9848 132.417 37.4411 132.619 38.0366 132.619C38.4155 132.619 38.7616 132.52 39.0748 132.323C39.388 132.126 39.6645 131.849 39.9042 131.493V128.46ZM40.4552 124.551V132.99H40.1536C40.0531 132.99 39.9951 132.939 39.9796 132.839L39.9216 131.928C39.6664 132.276 39.3687 132.553 39.0284 132.758C38.6881 132.963 38.3053 133.065 37.88 133.065C37.1685 133.065 36.6155 132.82 36.2211 132.329C35.8267 131.837 35.6295 131.101 35.6295 130.119C35.6295 129.697 35.6836 129.305 35.7919 128.941C35.904 128.574 36.0664 128.257 36.2791 127.99C36.4918 127.719 36.7528 127.507 37.0621 127.352C37.3753 127.197 37.735 127.12 38.141 127.12C38.5315 127.12 38.8699 127.192 39.156 127.335C39.4421 127.478 39.6915 127.69 39.9042 127.973V124.551H40.4552Z" fill="#161616"/>
<path d="M55.9851 85.4791C55.9451 85.4791 55.9041 85.4811 55.8621 85.4841L2.24409 86.0032C1.01709 86.0162 0.0110934 85.0302 9.33928e-05 83.8042C-0.0109066 82.5772 0.95109 81.5742 2.20009 81.5602L55.8201 81.0382C57.0461 81.0282 58.0511 82.0122 58.0641 83.2402C58.0741 84.4252 57.1551 85.4031 55.9851 85.4791Z" fill="#727272"/>
<path d="M56.2449 162.058C56.2049 162.061 56.1629 162.061 56.1219 162.061L2.50286 162.582C1.27686 162.593 0.271859 161.609 0.259859 160.382C0.248859 159.157 1.21186 158.153 2.45986 158.138L56.0789 157.617C57.3089 157.605 58.3129 158.59 58.3239 159.818C58.3349 161.005 57.4149 161.982 56.2449 162.058Z" fill="#727272"/>
<path d="M90.2562 82.9512L66.9102 83.2132L67.3712 158.649L105.502 159.672C77.3932 119.509 84.6682 93.6052 90.2562 82.9512Z" fill="#4D76A2"/>
<path d="M117.825 82.644L90.2559 82.9521C84.6689 93.6051 77.3929 119.51 105.502 159.673L118.757 160.029L117.825 82.644Z" fill="#4D76A2"/>
<path opacity="0.4" d="M90.2562 82.9512L66.9102 83.2132L67.3712 158.649L105.502 159.672C77.3932 119.509 84.6682 93.6052 90.2562 82.9512Z" fill="#211915"/>
<path d="M113.874 120.276C114.625 132.053 105.74 142.207 94.0237 142.955C82.3087 143.701 72.2017 134.763 71.4497 122.985C70.6977 111.211 79.5837 101.057 91.3007 100.307C103.015 99.5594 113.122 108.497 113.874 120.276Z" fill="white"/>
<path d="M94.0807 143.843C81.8947 144.619 71.3447 135.287 70.5627 123.041C69.7797 110.795 79.0597 100.196 91.2427 99.4213C103.428 98.6433 113.977 107.971 114.76 120.217C115.543 132.465 106.266 143.062 94.0807 143.843ZM91.3567 101.195C80.1497 101.912 71.6167 111.661 72.3357 122.929C73.0547 134.198 82.7587 142.785 93.9657 142.068C105.174 141.351 113.705 131.601 112.985 120.333C112.266 109.066 102.563 100.48 91.3567 101.195Z" fill="#32464F"/>
<path d="M88.1328 119.256C88.214 119.256 88.284 119.287 88.3426 119.35L88.9111 119.973C88.514 120.442 88.0291 120.805 87.4561 121.062C86.8876 121.32 86.2019 121.448 85.3988 121.448C84.6951 121.448 84.0567 121.326 83.4837 121.083C82.9153 120.839 82.428 120.498 82.022 120.061C81.6205 119.623 81.3092 119.1 81.0881 118.491C80.867 117.882 80.7565 117.212 80.7565 116.481C80.7565 115.75 80.8716 115.08 81.1016 114.471C81.3362 113.862 81.6633 113.339 82.0829 112.901C82.5025 112.463 83.0032 112.123 83.5852 111.879C84.1717 111.636 84.8191 111.514 85.5274 111.514C86.2177 111.514 86.8312 111.627 87.3681 111.852C87.905 112.078 88.3719 112.378 88.7689 112.752L88.2952 113.422C88.2636 113.472 88.223 113.512 88.1734 113.544C88.1283 113.576 88.0674 113.591 87.9907 113.591C87.905 113.591 87.8035 113.548 87.6862 113.463C87.5734 113.377 87.4223 113.282 87.2328 113.179C87.0478 113.07 86.8177 112.973 86.5425 112.888C86.2673 112.802 85.9244 112.759 85.5139 112.759C85.0312 112.759 84.589 112.845 84.1875 113.016C83.786 113.183 83.4386 113.427 83.1454 113.747C82.8566 114.063 82.631 114.453 82.4686 114.918C82.3107 115.378 82.2318 115.899 82.2318 116.481C82.2318 117.072 82.3152 117.598 82.4822 118.058C82.6491 118.518 82.8792 118.908 83.1724 119.228C83.4657 119.549 83.8108 119.792 84.2078 119.959C84.6048 120.126 85.0334 120.21 85.4936 120.21C85.7733 120.21 86.0237 120.194 86.2448 120.162C86.4703 120.126 86.6756 120.074 86.8606 120.007C87.0501 119.939 87.2283 119.853 87.3952 119.75C87.5621 119.641 87.7268 119.513 87.8892 119.364C87.9253 119.332 87.9636 119.307 88.0042 119.289C88.0448 119.267 88.0877 119.256 88.1328 119.256ZM95.5229 117.719L94.0814 113.95C93.9777 113.693 93.8739 113.368 93.7701 112.976C93.7205 113.17 93.6686 113.35 93.6145 113.517C93.5649 113.684 93.5152 113.833 93.4656 113.964L92.031 117.719H95.5229ZM98.3719 121.34H97.262C97.1357 121.34 97.032 121.308 96.9508 121.245C96.8695 121.182 96.8109 121.101 96.7748 121.001L95.9154 118.748H91.6317L90.7723 121.001C90.7407 121.087 90.682 121.166 90.5963 121.238C90.5106 121.306 90.4068 121.34 90.285 121.34H89.1752L93.0461 111.622H94.501L98.3719 121.34ZM105.259 112.827H102.173V121.34H100.738V112.827H97.6387V111.622H105.259V112.827Z" fill="#161616"/>
<path d="M83.6538 132.528V127.36L82.8418 127.308C82.7335 127.297 82.6794 127.248 82.6794 127.163V126.937H83.6538V126.206C83.6538 125.877 83.6963 125.589 83.7814 125.342C83.8665 125.091 83.9863 124.882 84.141 124.716C84.2957 124.549 84.4813 124.426 84.6978 124.344C84.9144 124.259 85.1541 124.217 85.417 124.217C85.5369 124.217 85.6568 124.228 85.7766 124.252C85.9004 124.271 86.0106 124.3 86.1072 124.339L86.0898 124.605C86.0821 124.64 86.0647 124.663 86.0376 124.675C86.0144 124.683 85.9796 124.687 85.9332 124.687C85.8868 124.683 85.8269 124.677 85.7534 124.669C85.68 124.658 85.5949 124.652 85.4982 124.652C85.3088 124.652 85.1328 124.681 84.9704 124.739C84.8119 124.793 84.6746 124.882 84.5586 125.006C84.4426 125.129 84.3517 125.292 84.286 125.493C84.2241 125.69 84.1932 125.934 84.1932 126.224V126.937H86.0666V127.349H84.2106V132.528H83.6538ZM89.3239 126.664C89.7376 126.664 90.1069 126.736 90.4317 126.879C90.7604 127.018 91.0369 127.217 91.2611 127.476C91.4854 127.735 91.6555 128.049 91.7715 128.416C91.8914 128.779 91.9514 129.187 91.9514 129.64C91.9514 130.092 91.8914 130.5 91.7715 130.864C91.6555 131.227 91.4854 131.538 91.2611 131.798C91.0369 132.057 90.7604 132.256 90.4317 132.395C90.1069 132.534 89.7376 132.604 89.3239 132.604C88.9101 132.604 88.5389 132.534 88.2103 132.395C87.8854 132.256 87.609 132.057 87.3808 131.798C87.1566 131.538 86.9845 131.227 86.8646 130.864C86.7486 130.5 86.6906 130.092 86.6906 129.64C86.6906 129.187 86.7486 128.779 86.8646 128.416C86.9845 128.049 87.1566 127.735 87.3808 127.476C87.609 127.217 87.8854 127.018 88.2103 126.879C88.5389 126.736 88.9101 126.664 89.3239 126.664ZM89.3239 132.169C89.668 132.169 89.9677 132.111 90.2229 131.995C90.482 131.875 90.6966 131.705 90.8667 131.484C91.0407 131.264 91.1703 130.999 91.2553 130.69C91.3404 130.376 91.3829 130.027 91.3829 129.64C91.3829 129.257 91.3404 128.909 91.2553 128.596C91.1703 128.283 91.0407 128.016 90.8667 127.795C90.6966 127.571 90.482 127.399 90.2229 127.279C89.9677 127.159 89.668 127.099 89.3239 127.099C88.9797 127.099 88.6781 127.159 88.4191 127.279C88.1639 127.399 87.9492 127.571 87.7752 127.795C87.6051 128.016 87.4756 128.283 87.3866 128.596C87.3016 128.909 87.259 129.257 87.259 129.64C87.259 130.027 87.3016 130.376 87.3866 130.69C87.4756 130.999 87.6051 131.264 87.7752 131.484C87.9492 131.705 88.1639 131.875 88.4191 131.995C88.6781 132.111 88.9797 132.169 89.3239 132.169ZM95.7924 126.664C96.2062 126.664 96.5754 126.736 96.9002 126.879C97.2289 127.018 97.5054 127.217 97.7297 127.476C97.9539 127.735 98.1241 128.049 98.2401 128.416C98.3599 128.779 98.4199 129.187 98.4199 129.64C98.4199 130.092 98.3599 130.5 98.2401 130.864C98.1241 131.227 97.9539 131.538 97.7297 131.798C97.5054 132.057 97.2289 132.256 96.9002 132.395C96.5754 132.534 96.2062 132.604 95.7924 132.604C95.3787 132.604 95.0075 132.534 94.6788 132.395C94.354 132.256 94.0775 132.057 93.8494 131.798C93.6251 131.538 93.453 131.227 93.3331 130.864C93.2171 130.5 93.1591 130.092 93.1591 129.64C93.1591 129.187 93.2171 128.779 93.3331 128.416C93.453 128.049 93.6251 127.735 93.8494 127.476C94.0775 127.217 94.354 127.018 94.6788 126.879C95.0075 126.736 95.3787 126.664 95.7924 126.664ZM95.7924 132.169C96.1366 132.169 96.4362 132.111 96.6914 131.995C96.9505 131.875 97.1651 131.705 97.3353 131.484C97.5093 131.264 97.6388 130.999 97.7239 130.69C97.8089 130.376 97.8515 130.027 97.8515 129.64C97.8515 129.257 97.8089 128.909 97.7239 128.596C97.6388 128.283 97.5093 128.016 97.3353 127.795C97.1651 127.571 96.9505 127.399 96.6914 127.279C96.4362 127.159 96.1366 127.099 95.7924 127.099C95.4483 127.099 95.1467 127.159 94.8876 127.279C94.6324 127.399 94.4178 127.571 94.2438 127.795C94.0736 128.016 93.9441 128.283 93.8552 128.596C93.7701 128.909 93.7276 129.257 93.7276 129.64C93.7276 130.027 93.7701 130.376 93.8552 130.69C93.9441 130.999 94.0736 131.264 94.2438 131.484C94.4178 131.705 94.6324 131.875 94.8876 131.995C95.1467 132.111 95.4483 132.169 95.7924 132.169ZM103.914 127.998C103.694 127.666 103.448 127.432 103.177 127.297C102.911 127.161 102.605 127.094 102.261 127.094C101.921 127.094 101.623 127.155 101.368 127.279C101.113 127.403 100.898 127.579 100.724 127.807C100.554 128.031 100.424 128.302 100.335 128.619C100.25 128.932 100.208 129.278 100.208 129.657C100.208 130.516 100.364 131.148 100.677 131.554C100.995 131.956 101.451 132.157 102.046 132.157C102.425 132.157 102.771 132.059 103.085 131.861C103.398 131.664 103.674 131.388 103.914 131.032V127.998ZM104.465 124.089V132.528H104.163C104.063 132.528 104.005 132.478 103.989 132.378L103.931 131.467C103.676 131.815 103.378 132.091 103.038 132.296C102.698 132.501 102.315 132.604 101.89 132.604C101.178 132.604 100.625 132.358 100.231 131.867C99.8365 131.376 99.6393 130.639 99.6393 129.657C99.6393 129.236 99.6934 128.843 99.8017 128.48C99.9138 128.112 100.076 127.795 100.289 127.529C100.502 127.258 100.763 127.045 101.072 126.891C101.385 126.736 101.745 126.659 102.151 126.659C102.541 126.659 102.88 126.73 103.166 126.873C103.452 127.016 103.701 127.229 103.914 127.511V124.089H104.465Z" fill="#161616"/>
<path d="M118.995 85.0173C118.955 85.0173 118.914 85.0192 118.872 85.0222L65.2538 85.5412C64.0268 85.5542 63.0209 84.5682 63.0099 83.3422C62.9989 82.1152 63.9609 81.1123 65.2099 81.0983L118.83 80.5762C120.057 80.5662 121.061 81.5502 121.074 82.7782C121.084 83.9632 120.165 84.9413 118.995 85.0173Z" fill="#727272"/>
<path d="M119.255 161.596C119.214 161.599 119.173 161.599 119.132 161.599L65.5126 162.12C64.2866 162.131 63.2816 161.147 63.2696 159.92C63.2586 158.695 64.2216 157.691 65.4696 157.676L119.089 157.155C120.319 157.143 121.323 158.128 121.334 159.356C121.346 160.543 120.425 161.52 119.255 161.596Z" fill="#727272"/>
<path d="M59.6839 2.10498L36.3369 2.13397L36.0449 77.572L74.1639 78.974C46.4569 38.532 53.9909 12.702 59.6839 2.10498Z" fill="#54B068"/>
<path d="M87.254 2.07324L59.684 2.10522C53.991 12.7032 46.457 38.5332 74.164 78.9742L87.415 79.4622L87.254 2.07324Z" fill="#61A492"/>
<path d="M59.6839 2.10498L36.3369 2.13397L36.0449 77.572L74.1639 78.974C46.4569 38.532 53.9909 12.702 59.6839 2.10498Z" fill="#427F6D"/>
<path d="M88.4006 4.45697C88.3606 4.45697 88.3196 4.458 88.2766 4.461L34.6556 4.44397C33.4286 4.44397 32.4316 3.44898 32.4336 2.22198C32.4356 0.994985 33.4066 0.001 34.6556 0L88.2776 0.0119934C89.5046 0.0149934 90.4996 1.008 90.4996 2.237C90.5006 3.424 89.5716 4.39297 88.4006 4.45697Z" fill="#727272"/>
<path d="M87.8966 81.0361C87.8566 81.0381 87.8146 81.0381 87.7746 81.0371L34.1526 81.0241C32.9266 81.0221 31.9306 80.0291 31.9316 78.8011C31.9326 77.5761 32.9056 76.5811 34.1536 76.5781L87.7746 76.5931C89.0046 76.5941 89.9986 77.5881 89.9966 78.8171C89.9976 80.0031 89.0676 80.9711 87.8966 81.0361Z" fill="#727272"/>
<path d="M82.9289 39.663C83.5629 51.447 74.576 61.512 62.853 62.142C51.131 62.771 41.1139 53.732 40.4789 41.948C39.8439 30.167 48.8319 20.103 60.5549 19.469C72.2769 18.839 82.2939 27.878 82.9289 39.663Z" fill="white"/>
<path d="M62.9005 63.0321C50.7075 63.6871 40.2505 54.2511 39.5915 41.9971C38.9305 29.7441 48.3155 19.2381 60.5065 18.5851C72.6985 17.9281 83.1545 27.3601 83.8155 39.6141C84.4745 51.8691 75.0935 62.3721 62.9005 63.0321ZM60.6025 20.3591C49.3895 20.9641 40.7585 30.6281 41.3655 41.9021C41.9715 53.1771 51.5905 61.8611 62.8035 61.2561C74.0175 60.6521 82.6455 50.9871 82.0375 39.7121C81.4325 28.4381 71.8155 19.7551 60.6025 20.3591Z" fill="#306051"/>
<path d="M56.8803 37.6942C56.9615 37.695 57.0311 37.7272 57.0891 37.791L57.6513 38.4192C57.2496 38.8844 56.761 39.2427 56.1856 39.4941C55.6146 39.7455 54.9276 39.8672 54.1247 39.8592C53.4209 39.8521 52.7838 39.724 52.2134 39.4746C51.6474 39.2254 51.1636 38.8799 50.762 38.4383C50.3649 37.9967 50.0589 37.4703 49.8439 36.8591C49.629 36.2479 49.5252 35.5769 49.5325 34.8461C49.5398 34.1153 49.6615 33.4466 49.8977 32.8399C50.1383 32.2332 50.4706 31.7132 50.8945 31.2798C51.3184 30.8465 51.8225 30.5109 52.4069 30.2731C52.9958 30.0354 53.6443 29.9201 54.3526 29.9271C55.0428 29.934 55.6551 30.053 56.1897 30.2839C56.7243 30.5148 57.1881 30.8195 57.5814 31.1978L57.101 31.863C57.0689 31.9123 57.0279 31.9525 56.978 31.9836C56.9326 32.0147 56.8715 32.0299 56.7948 32.0291C56.7091 32.0283 56.608 31.9844 56.4916 31.8975C56.3797 31.8107 56.2295 31.7144 56.0411 31.6088C55.8572 31.4987 55.6281 31.3994 55.3538 31.3109C55.0795 31.2224 54.7371 31.1762 54.3266 31.1721C53.8439 31.1672 53.401 31.2485 52.9978 31.4159C52.5946 31.5788 52.2448 31.8189 51.9484 32.1363C51.6565 32.4492 51.4271 32.8371 51.26 33.3001C51.0976 33.7587 51.0134 34.2789 51.0076 34.8609C51.0017 35.4518 51.0799 35.9782 51.2422 36.44C51.4045 36.9018 51.6306 37.2943 51.9207 37.6175C52.2107 37.9407 52.5533 38.1878 52.9486 38.3586C53.3439 38.5295 53.7717 38.6172 54.2318 38.6219C54.5115 38.6246 54.762 38.6114 54.9833 38.582C55.2093 38.5482 55.415 38.4983 55.6007 38.4325C55.7908 38.3668 55.9698 38.2828 56.1378 38.1807C56.3058 38.0741 56.4717 37.9472 56.6356 37.8C56.672 37.7688 56.7106 37.7443 56.7514 37.7267C56.7922 37.7046 56.8352 37.6937 56.8803 37.6942ZM64.285 36.232L62.8814 32.4486C62.7802 32.1905 62.6797 31.8646 62.5798 31.4711C62.5283 31.6646 62.4746 31.8446 62.4188 32.0109C62.3675 32.1773 62.3164 32.3257 62.2655 32.456L60.7934 36.1971L64.285 36.232ZM67.0975 39.8807L65.9878 39.8696C65.8614 39.8683 65.758 39.8357 65.6774 39.7717C65.5969 39.7077 65.539 39.626 65.5039 39.5264L64.6671 37.2645L60.3839 37.2217L59.502 39.4663C59.4696 39.5517 59.4101 39.6301 59.3237 39.7014C59.2373 39.7682 59.1332 39.801 59.0114 39.7998L57.9017 39.7887L61.8694 30.1106L63.3242 30.1251L67.0975 39.8807ZM74.0687 31.4372L70.9831 31.4063L70.898 39.9187L69.4634 39.9043L69.5486 31.392L66.4495 31.361L66.4615 30.1565L74.0807 30.2327L74.0687 31.4372Z" fill="#161616"/>
<path d="M51.1677 51.0699L51.2194 45.9025L50.4079 45.8422C50.2998 45.8295 50.2462 45.7807 50.247 45.6956L50.2493 45.4694L51.2236 45.4792L51.2309 44.7484C51.2342 44.4198 51.2796 44.1321 51.3671 43.8855C51.4547 43.6351 51.5767 43.4275 51.733 43.2628C51.8893 43.0981 52.0761 42.9762 52.2934 42.8972C52.5108 42.8143 52.751 42.7742 53.0139 42.7768C53.1337 42.778 53.2535 42.7908 53.3731 42.8152C53.4966 42.8358 53.6065 42.8659 53.7028 42.9055L53.6827 43.1721C53.6746 43.2068 53.657 43.2298 53.6298 43.2412C53.6066 43.2487 53.5717 43.2522 53.5253 43.2517C53.479 43.2474 53.4191 43.241 53.3457 43.2325C53.2724 43.2202 53.1874 43.2135 53.0907 43.2126C52.9013 43.2107 52.725 43.2379 52.5621 43.2943C52.403 43.3468 52.2649 43.4344 52.1476 43.5569C52.0304 43.6795 51.9379 43.841 51.8702 44.0414C51.8064 44.2379 51.773 44.4812 51.7701 44.7712L51.763 45.4845L53.6362 45.5033L53.6321 45.9151L51.7762 45.8965L51.7244 51.0755L51.1677 51.0699ZM56.8959 45.2633C57.3096 45.2674 57.6781 45.3426 58.0014 45.4889C58.3287 45.6314 58.6031 45.8333 58.8248 46.0946C59.0464 46.3559 59.2134 46.6708 59.3258 47.0392C59.442 47.4039 59.4978 47.8124 59.4933 48.2647C59.4888 48.7171 59.4248 49.1244 59.3013 49.4866C59.1817 49.8489 59.0084 50.1585 58.7816 50.4153C58.5547 50.6721 58.2763 50.8684 57.9463 51.0043C57.6201 51.1403 57.2502 51.2062 56.8365 51.202C56.4228 51.1979 56.0523 51.1246 55.725 50.9821C55.4016 50.8397 55.1272 50.6378 54.9017 50.3765C54.68 50.1152 54.5111 49.8022 54.3948 49.4376C54.2825 49.073 54.2286 48.6645 54.2331 48.2121C54.2376 47.7598 54.2997 47.3524 54.4193 46.9902C54.5428 46.624 54.718 46.3126 54.9449 46.0558C55.1756 45.799 55.454 45.6027 55.7802 45.4667C56.1103 45.327 56.4821 45.2591 56.8959 45.2633ZM56.8408 50.7671C57.1849 50.7705 57.4851 50.7155 57.7415 50.6021C58.0017 50.4848 58.218 50.3168 58.3903 50.0981C58.5665 49.8795 58.6987 49.616 58.7869 49.3075C58.875 48.9952 58.9211 48.6457 58.9249 48.259C58.9288 47.8763 58.8897 47.5279 58.8078 47.2138C58.7259 46.8998 58.599 46.6317 58.4272 46.4096C58.2593 46.1837 58.0465 46.0095 57.7886 45.887C57.5347 45.7646 57.2356 45.7017 56.8915 45.6982C56.5474 45.6948 56.2452 45.7517 55.985 45.869C55.7286 45.9863 55.5123 46.1562 55.3361 46.3787C55.1637 46.5974 55.0315 46.8629 54.9395 47.1752C54.8513 47.4875 54.8053 47.835 54.8014 48.2178C54.7976 48.6044 54.8366 48.9548 54.9185 49.2688C55.0044 49.579 55.1313 49.8451 55.2992 50.0672C55.4709 50.2894 55.6838 50.4616 55.9378 50.584C56.1957 50.7026 56.4967 50.7636 56.8408 50.7671ZM63.3637 45.328C63.7774 45.3321 64.146 45.4073 64.4693 45.5536C64.7966 45.6961 65.071 45.898 65.2927 46.1593C65.5143 46.4206 65.6813 46.7354 65.7936 47.1039C65.9099 47.4685 65.9657 47.877 65.9612 48.3294C65.9567 48.7818 65.8926 49.1891 65.7692 49.5513C65.6495 49.9136 65.4763 50.2231 65.2495 50.48C65.0226 50.7368 64.7442 50.9331 64.4141 51.069C64.088 51.205 63.718 51.2709 63.3043 51.2667C62.8906 51.2626 62.5202 51.1893 62.1929 51.0468C61.8695 50.9044 61.5951 50.7025 61.3695 50.4411C61.1479 50.1799 60.9789 49.8669 60.8627 49.5023C60.7504 49.1377 60.6964 48.7292 60.701 48.2768C60.7055 47.8244 60.7676 47.4171 60.8872 47.0548C61.0107 46.6887 61.1859 46.3773 61.4128 46.1205C61.6435 45.8637 61.9219 45.6674 62.2481 45.5314C62.5781 45.3916 62.95 45.3238 63.3637 45.328ZM63.3087 50.8318C63.6528 50.8352 63.953 50.7802 64.2094 50.6668C64.4696 50.5495 64.6859 50.3815 64.8582 50.1628C65.0344 49.9442 65.1666 49.6806 65.2547 49.3722C65.3429 49.0599 65.389 48.7104 65.3928 48.3237C65.3967 47.941 65.3576 47.5926 65.2757 47.2785C65.1937 46.9645 65.0669 46.6964 64.8951 46.4743C64.7272 46.2484 64.5144 46.0742 64.2565 45.9517C64.0025 45.8293 63.7035 45.7664 63.3594 45.7629C63.0153 45.7595 62.7131 45.8164 62.4528 45.9337C62.1965 46.051 61.9802 46.2209 61.8039 46.4434C61.6316 46.6621 61.4994 46.9276 61.4074 47.2398C61.3192 47.5522 61.2732 47.8997 61.2693 48.2825C61.2655 48.6691 61.3045 49.0195 61.3864 49.3335C61.4723 49.6437 61.5991 49.9098 61.767 50.1319C61.9388 50.354 62.1517 50.5263 62.4057 50.6487C62.6636 50.7673 62.9646 50.8283 63.3087 50.8318ZM71.4711 46.7431C71.2541 46.4084 71.0109 46.172 70.7416 46.034C70.4762 45.896 70.1714 45.8253 69.8273 45.8218C69.4871 45.8184 69.1887 45.8773 68.9323 45.9985C68.6759 46.1196 68.4596 46.2934 68.2833 46.5198C68.1109 46.7423 67.9787 47.0117 67.8866 47.3278C67.7984 47.6402 67.7524 47.9858 67.7486 48.3647C67.74 49.223 67.8903 49.8567 68.1994 50.2658C68.5125 50.6711 68.9667 50.8767 69.5621 50.8827C69.941 50.8865 70.288 50.7914 70.6032 50.5973C70.9183 50.4032 71.1975 50.1296 71.4408 49.7763L71.4711 46.7431ZM72.0612 42.8397L71.9768 51.2781L71.6752 51.275C71.5747 51.274 71.5172 51.2232 71.5028 51.1225L71.4539 50.2114C71.1952 50.5568 70.8947 50.8303 70.5524 51.0318C70.2101 51.2333 69.8263 51.3319 69.401 51.3277C68.6896 51.3206 68.1392 51.0695 67.7497 50.5746C67.3603 50.0796 67.1705 49.3411 67.1803 48.359C67.1845 47.9376 67.2425 47.5457 67.3544 47.1833C67.4702 46.8171 67.6358 46.5017 67.8511 46.2371C68.0665 45.9685 68.3296 45.7585 68.6404 45.6069C68.9552 45.4554 69.3155 45.3817 69.7215 45.3857C70.112 45.3896 70.4496 45.4646 70.7343 45.6105C71.0189 45.7564 71.2662 45.9715 71.476 46.2559L71.5102 42.8342L72.0612 42.8397Z" fill="#161616"/>
</svg>
