<svg width="200" height="81" viewBox="0 0 200 81" fill="none" xmlns="http://www.w3.org/2000/svg">
<path d="M20.6848 52.0596C18.1488 54.8836 17.2948 57.9536 17.1738 60.6436C19.2518 58.9556 21.4958 56.1576 20.6848 52.0596Z" fill="#A8AAAC"/>
<path d="M22.9263 49.9902C22.0613 50.6562 21.3233 51.3492 20.6853 52.0592C21.4963 56.1572 19.2523 58.9552 17.1743 60.6432C17.1063 62.1512 17.2623 63.5413 17.4873 64.7093C25.0353 60.0953 23.6003 52.2982 22.9263 49.9902Z" fill="#818385"/>
<path d="M34.2416 46.6343C33.2786 46.3863 32.3117 46.1423 31.3447 45.9023C31.0817 45.9813 30.8427 46.0673 30.5897 46.1483C37.1827 63.1963 24.5437 71.5683 18.1337 75.0653C17.6547 76.8383 16.9986 78.3483 16.5146 79.3283C37.7746 70.3743 36.0856 53.1573 34.2416 46.6343Z" fill="#949698"/>
<path d="M24.7383 48.7612C24.0843 49.1572 23.4764 49.5672 22.9254 49.9902C23.5994 52.2982 25.0343 60.0943 17.4863 64.7093C17.7633 66.1493 18.1333 67.2482 18.3143 67.8142C21.2603 65.8662 29.6453 59.6352 24.7383 48.7612Z" fill="#585A5B"/>
<path d="M35.875 47.0583C35.331 46.9163 34.787 46.7743 34.242 46.6343C36.086 53.1573 37.776 70.3743 16.515 79.3273C16.144 80.0783 15.874 80.5243 15.874 80.5243C43.118 72.3843 36.039 47.2963 35.875 47.0583Z" fill="#A8AAAC"/>
<path d="M30.5898 46.1484C29.6308 46.4594 28.7228 46.7894 27.8908 47.1444C29.2148 49.9214 33.4698 62.5264 18.7228 71.0234C18.7068 72.4404 18.4688 73.8154 18.1338 75.0654C24.5438 71.5684 37.1828 63.1964 30.5898 46.1484Z" fill="#818385"/>
<path d="M27.8915 47.1445C26.7205 47.6465 25.6794 48.1895 24.7394 48.7615C29.6454 59.6355 21.2614 65.8665 18.3154 67.8155C18.3524 67.9335 18.3834 68.0375 18.4014 68.1065C18.6494 69.0775 18.7344 70.0585 18.7234 71.0235C33.4714 62.5265 29.2155 49.9215 27.8915 47.1445Z" fill="#A8AAAC"/>
<path d="M18.1598 45.6551C14.6128 44.1891 12.4118 41.8551 11.0498 39.5151C13.8148 40.0461 17.1718 41.5941 18.1598 45.6551Z" fill="#A8AAAC"/>
<path d="M21.0982 46.5903C20.0262 46.3413 19.0542 46.0253 18.1602 45.6553C17.1722 41.5943 13.8142 40.0464 11.0502 39.5154C10.2852 38.2044 9.7832 36.8983 9.4502 35.7563C18.9772 36.3663 20.7442 44.2623 21.0982 46.5903Z" fill="#818385"/>
<path d="M32.9162 45.3381C32.0992 45.9121 31.2872 46.4881 30.4762 47.0671C30.2042 47.0901 29.9512 47.0991 29.6862 47.1161C29.9232 28.6861 13.5722 25.9461 5.09521 26.2981C3.73021 24.9751 2.28723 23.9891 1.28223 23.3851C28.2992 20.8091 32.3112 38.9741 32.9162 45.3381Z" fill="#949698"/>
<path d="M23.2681 46.9733C22.5071 46.8733 21.7821 46.7483 21.0981 46.5913C20.7441 44.2623 18.9771 36.3663 9.45007 35.7573C9.03907 34.3483 8.88106 33.2003 8.78906 32.6113C12.7221 32.8223 23.6181 34.9633 23.2681 46.9733Z" fill="#585A5B"/>
<path d="M34.306 44.3662C33.842 44.6892 33.379 45.0132 32.916 45.3382C32.31 38.9732 28.299 20.8092 1.28302 23.3862C0.51202 22.9242 0 22.6782 0 22.6782C33.304 16.5222 34.232 44.6982 34.306 44.3662Z" fill="#A8AAAC"/>
<path d="M29.6866 47.1164C28.6836 47.1844 27.7187 47.2234 26.8127 47.2164C26.8357 44.3504 26.6097 30.3394 7.66266 29.5744C6.96666 28.3284 6.05668 27.2304 5.09668 26.2984C13.5717 25.9474 29.9236 28.6874 29.6866 47.1164Z" fill="#818385"/>
<path d="M26.8121 47.2162C25.5381 47.2052 24.3651 47.1172 23.2671 46.9722C23.6181 34.9622 12.7211 32.8212 8.78906 32.6102C8.76906 32.4882 8.75208 32.3812 8.73608 32.3112C8.52108 31.3332 8.13711 30.4232 7.66211 29.5752C26.6091 30.3392 26.8361 44.3502 26.8121 47.2162Z" fill="#A8AAAC"/>
<path d="M137.87 32.4101C138.149 32.8441 98.516 27.5781 43.418 41.4931C43.544 42.1271 43.669 42.7611 43.795 43.3941C43.773 43.5261 61.363 39.0471 82.3 37.1041C103.167 34.8431 127.379 35.1181 139.027 37.4071C162.348 41.8661 137.987 32.3291 137.87 32.4101Z" fill="white"/>
<path d="M182.553 40.8472C182.812 41.0562 178.87 3.05119 152.151 0.0041863C151.181 -0.302814 120.813 16.2252 136.957 66.1832C137.631 65.2382 184.433 82.7582 199.051 43.6962C193.558 42.6252 188.058 41.6762 182.553 40.8472Z" fill="#61A492"/>
<path d="M123.498 32.0912C123.53 32.0932 121.659 9.14314 117.946 0.869141C119.143 0.994141 120.342 1.12514 121.538 1.26114C121.681 1.23414 130.253 22.3981 129.414 32.8951" fill="white"/>
<path d="M123.489 33.667C123.478 33.667 120.58 56.459 117.376 64.624C118.394 64.532 119.413 64.445 120.434 64.361C120.306 64.331 129.085 43.777 129.426 33.313" fill="white"/>
<path d="M105.285 34.2323C105.312 34.2333 102.609 13.0563 98.8711 5.54834C99.9731 5.61334 101.074 5.68433 102.174 5.75833C102.296 5.73033 111.058 24.9573 110.76 34.7133" fill="white"/>
<path d="M105.344 35.692C105.335 35.693 103.647 56.928 101.029 64.628C101.968 64.5 102.906 64.376 103.847 64.255C103.736 64.235 110.943 44.811 110.787 35.104" fill="white"/>
<path d="M90.0251 35.2844C90.0471 35.2844 86.9081 16.5564 83.3691 10.0054C84.3411 10.0274 85.3121 10.0524 86.2831 10.0824C86.3791 10.0564 94.7871 26.8394 94.8961 35.5174" fill="white"/>
<path d="M90.1271 36.5803C90.1191 36.5813 89.3692 55.5163 87.2852 62.4513C88.1212 62.3053 88.9571 62.1623 89.7941 62.0213C89.7061 62.0083 95.4411 44.4873 94.9351 35.8623" fill="white"/>
<path d="M73.3539 37.807C73.3719 37.807 69.804 20.967 66.377 15.169C67.25 15.152 68.122 15.139 68.994 15.127C69.072 15.103 77.3009 29.971 77.7599 37.824" fill="white"/>
<path d="M73.4976 38.9767C73.4916 38.9777 73.5655 56.1577 71.9355 62.5187C72.6885 62.3547 73.4435 62.1917 74.1985 62.0327C74.1265 62.0257 78.6256 45.9257 77.8076 38.1367" fill="white"/>
<path d="M59.3497 38.7921C59.3617 38.7911 56.0117 25.4051 53.1357 20.8481C53.8277 20.8121 54.5197 20.7771 55.2127 20.7451C55.2617 20.7271 62.2567 32.4011 62.8887 38.6721" fill="white"/>
<path d="M59.4985 39.7249C59.4945 39.7259 60.0565 53.4879 58.8955 58.6369C59.5035 58.4829 60.1135 58.3299 60.7235 58.1779C60.6755 58.1749 63.8475 45.1339 62.9345 38.9189" fill="white"/>
<path d="M46.6484 41.1512C46.6614 41.1492 42.8514 29.8912 40.0684 26.1652C40.6564 26.0922 41.2434 26.0212 41.8314 25.9512C41.8694 25.9352 48.6904 35.4972 49.6754 40.8262" fill="white"/>
<path d="M46.8428 41.9411C46.8428 41.9411 48.2638 53.6991 47.5848 58.1851C48.1008 58.0151 48.6158 57.8461 49.1328 57.6781C49.1008 57.6781 50.9678 46.3021 49.7368 41.0361" fill="white"/>
<path d="M148.167 22.5852C151.035 24.1642 153.873 25.7732 156.68 27.4122C155.2 30.8072 153.745 34.2082 152.316 37.6172C152.757 37.9352 153.198 38.2542 153.636 38.5742C155.303 35.1802 157.002 31.7972 158.734 28.4232C161.849 30.2902 164.924 32.1942 167.96 34.1332C168.352 33.3932 168.744 32.6543 169.14 31.9153C166.204 30.0573 163.231 28.2312 160.221 26.4402C161.537 23.8852 162.873 21.3363 164.226 18.7943C163.589 18.6073 162.952 18.4232 162.314 18.2402C160.971 20.5222 159.646 22.8092 158.337 25.1032C155.752 23.5992 153.141 22.1192 150.504 20.6662C149.721 21.3052 148.942 21.9442 148.167 22.5852Z" fill="white"/>
<path d="M44.2967 39.2312C44.5717 41.6802 44.8487 44.1293 45.1267 46.5783C45.0937 46.4743 28.7267 50.4403 26.0487 47.9103C23.2677 45.1773 40.0957 38.8632 44.2967 39.2312Z" fill="#61A492"/>
<path d="M185.81 41.4592C185.802 41.3332 167.821 39.9092 167.712 40.2132C167.592 40.3882 166.559 38.8691 166.557 38.8691C177.522 39.2841 188.546 40.1752 199.599 41.5562C199.416 42.2692 199.233 42.9822 199.05 43.6962C194.64 42.8722 190.227 42.1272 185.81 41.4592Z" fill="#427F6D"/>
</svg>
