<svg width="161" height="125" viewBox="0 0 161 125" fill="none" xmlns="http://www.w3.org/2000/svg">
<path d="M65.8838 61.1481C39.4608 49.6241 6.50875 82.3601 0.96875 88.1491L38.7898 124.254L83.2257 77.3091C78.2417 70.2131 72.3608 63.9721 65.8838 61.1481ZM30.5187 82.4421C28.9497 83.5681 27.0158 83.5581 26.2028 82.4231C25.3898 81.2891 26.0058 79.4561 27.5778 78.3321C29.1498 77.2061 31.0817 77.2121 31.8937 78.3511C32.7067 79.4851 32.0907 81.3161 30.5187 82.4421ZM37.6637 70.5681C39.2347 69.4451 41.1668 69.4541 41.9808 70.5891C42.7918 71.7241 42.1768 73.5531 40.6048 74.6781C39.0338 75.8031 37.1018 75.7951 36.2868 74.6611C35.4798 73.5251 36.0917 71.6971 37.6637 70.5681ZM42.2878 95.0071C40.7168 96.1331 38.7847 96.1241 37.9717 94.9901C37.1617 93.8541 37.7767 92.0221 39.3467 90.8991C40.9197 89.7721 42.8508 89.7811 43.6618 90.9151C44.4768 92.0521 43.8618 93.8821 42.2878 95.0071ZM43.5208 84.1911C41.9468 85.3161 40.0158 85.3081 39.2028 84.1711C38.3918 83.0371 39.0078 81.2041 40.5768 80.0821C42.1498 78.9551 44.0827 78.9631 44.8937 80.1001C45.7057 81.2341 45.0908 83.0661 43.5208 84.1911ZM52.3628 96.9991C50.7918 98.1251 48.8598 98.1161 48.0488 96.9801C47.2358 95.8451 47.8528 94.0151 49.4208 92.8881C50.9938 91.7651 52.9257 91.7731 53.7387 92.9071C54.5507 94.0421 53.9358 95.8731 52.3628 96.9991ZM53.1458 87.1531C51.5778 88.2771 49.6427 88.2701 48.8317 87.1361C48.0187 85.9991 48.6358 84.1681 50.2038 83.0421C51.7798 81.9181 53.7118 81.9241 54.5228 83.0611C55.3328 84.1961 54.7178 86.0261 53.1458 87.1531ZM52.3738 77.8081C50.8018 78.9311 48.8677 78.9211 48.0557 77.7871C47.2447 76.6521 47.8598 74.8211 49.4318 73.6961C51.0028 72.5711 52.9358 72.5791 53.7488 73.7151C54.5608 74.8501 53.9458 76.6811 52.3738 77.8081ZM51.5707 68.1211C50.0007 69.2461 48.0677 69.2351 47.2537 68.1031C46.4417 66.9661 47.0587 65.1361 48.6287 64.0081C50.2017 62.8841 52.1347 62.8961 52.9457 64.0291C53.7577 65.1641 53.1437 66.9941 51.5707 68.1211ZM62.9007 87.6521C61.3347 88.7741 59.3997 88.7661 58.5877 87.6331C57.7747 86.4971 58.3887 84.6671 59.9607 83.5411C61.5327 82.4171 63.4627 82.4241 64.2777 83.5581C65.0897 84.6961 64.4737 86.5241 62.9007 87.6521ZM63.2788 78.4521C61.7068 79.5771 59.7747 79.5711 58.9627 78.4341C58.1497 77.2991 58.7668 75.4681 60.3388 74.3421C61.9088 73.2181 63.8427 73.2281 64.6547 74.3631C65.4677 75.4971 64.8498 77.3291 63.2788 78.4521Z" fill="#AF1A55"/>
<path d="M65.884 61.1481C72.361 63.9731 78.243 70.2141 83.226 77.3081L90.119 70.0231L73.263 46.9611L56.563 42.2861C56.563 42.2861 2.61 46.8681 0 87.2201L0.969994 88.1481C6.50899 82.3601 39.46 49.6231 65.884 61.1481Z" fill="#E03277"/>
<path d="M56.5621 42.2861C56.5621 42.2861 105.707 58.4761 64.0462 86.6181C27.9311 111.015 38.7902 124.253 38.7902 124.253C38.7902 124.253 77.0432 100.877 89.8632 84.9301C102.686 68.9841 83.0941 42.4771 56.5621 42.2861Z" fill="#DB2363"/>
<path d="M85.264 57.283C85.264 57.283 106.99 25.047 144.486 18.134C181.982 11.221 139.769 0.577985 139.769 0.577985C139.769 0.577985 134.243 -8.86301 76.958 48.568L85.264 57.283Z" fill="#DB2363"/>
</svg>
