<svg width="229" height="106" viewBox="0 0 229 106" fill="none" xmlns="http://www.w3.org/2000/svg">
<path d="M192.264 0H34.596L0 54.447V68.058H228.56V55.582L192.264 0ZM11.663 48.168L37.358 5.97601L37.934 5.03003H189.078L213.08 48.168H11.663Z" fill="white"/>
<path d="M39.5049 3.4082L45.9869 53.8542L176.903 56.5982L188.063 3.4082H39.5049Z" fill="#61A492"/>
<path d="M192.323 3.4082H188.063L176.903 56.5982L223.46 57.5752L192.323 3.4082Z" fill="#427F6D"/>
<path d="M35.6649 3.4082L6.79688 53.0332L45.9869 53.8542L39.5049 3.4082H35.6649Z" fill="#427F6D"/>
<path d="M4.20215 64.0432L14.7291 105.491H216.399L223.46 62.1162L4.20215 64.0432Z" fill="#61A492"/>
<path d="M182.268 30.4912H42.7989L33.5049 56.5982H193.743L182.268 30.4912Z" fill="#5B7D61"/>
<path d="M27.9403 48.5609C30.7923 42.6489 30.1653 40.3818 33.0383 36.0408C35.0933 32.9348 36.0693 31.4428 36.7653 27.6138C37.1503 27.6888 38.9453 23.9279 39.5053 24.1129C39.9403 22.6729 40.0503 19.7659 41.5523 19.3419C44.2063 18.5949 52.1693 16.6519 55.0483 16.6599C59.3273 16.6739 62.5972 15.4448 66.9432 15.4448C72.7532 15.4448 80.4883 16.0188 86.2893 16.2888C91.4083 16.5288 93.4243 19.6258 98.4263 17.7708C98.1393 17.0398 106.09 15.9818 105.991 15.4888C110.009 15.5388 110.216 15.1198 113.872 16.1428C117.618 17.1918 121.003 17.5319 124.868 17.6649C132.563 17.9339 140.335 17.9799 148.087 17.9799C151.417 17.9799 154.04 18.8889 157.13 19.2479C160.708 19.6629 164.294 18.9268 167.878 18.9258C172.507 18.9258 180.841 17.5909 184.687 19.5059C186.08 20.2009 186.904 26.9658 188.066 28.1138C191.17 31.1758 189.582 29.9848 191.513 33.3458C193.802 37.3278 195.788 41.3449 197.697 45.4509C197.468 45.4729 197.275 45.3218 197.047 45.3398C197.711 47.8608 200.953 50.8768 199.195 53.9318C197.191 57.4158 188.853 56.7688 185.672 56.7538C163.365 56.6508 140.742 58.0078 118.565 56.4388C109.991 55.8318 100.903 55.4949 92.3213 55.8779C85.2493 56.1929 78.4653 57.3888 71.3643 57.7068C60.1203 58.2118 48.8173 58.0159 37.5363 58.0159C35.0133 58.0159 30.5153 58.9239 28.2163 57.6989C26.2223 56.6359 26.7343 56.6949 26.6343 54.5399C26.5523 52.7709 26.6933 48.8378 28.2513 47.9288" fill="#CCA681"/>
</svg>
