<svg width="100%" height="100%" id="svg" viewBox="0 0 1440 390" xmlns="http://www.w3.org/2000/svg" class="transition duration-300 ease-in-out delay-150"><path d="M 0,400 L 0,0 C 39.46539027982327,37.00699558173785 78.93078055964654,74.0139911634757 148,101 C 217.06921944035346,127.9860088365243 315.74226804123714,144.95103092783506 379,128 C 442.25773195876286,111.04896907216495 470.1001472754051,60.18188512518409 532,61 C 593.8998527245949,61.81811487481591 689.8571428571428,114.32142857142858 752,125 C 814.1428571428572,135.67857142857142 842.4712812960237,104.53240058910161 890,89 C 937.5287187039763,73.46759941089839 1004.2577319587629,73.54896907216495 1067,76 C 1129.7422680412371,78.45103092783505 1188.497790868925,83.27172312223858 1250,71 C 1311.502209131075,58.72827687776142 1375.7511045655374,29.36413843888071 1440,0 L 1440,400 L 0,400 Z" stroke="none" stroke-width="0" fill="#ada4eb" fill-opacity="0.53" class="transition-all duration-300 ease-in-out delay-150 path-0"></path><path d="M 0,400 L 0,0 C 58.16200294550809,99.85659057437408 116.32400589101618,199.71318114874816 181,232 C 245.67599410898382,264.28681885125184 316.8659793814433,229.00386597938146 383,224 C 449.1340206185567,218.99613402061854 510.21207658321066,244.27135493372606 564,254 C 617.7879234167893,263.72864506627394 664.2857142857143,257.91071428571433 713,247 C 761.7142857142857,236.08928571428567 812.6450662739322,220.08578792341677 880,226 C 947.3549337260678,231.91421207658323 1031.1340206185569,259.74613402061857 1098,261 C 1164.8659793814431,262.25386597938143 1214.818851251841,236.92967599410898 1269,189 C 1323.181148748159,141.07032400589102 1381.5905743740796,70.53516200294551 1440,0 L 1440,400 L 0,400 Z" stroke="none" stroke-width="0" fill="#ada4eb" fill-opacity="1" class="transition-all duration-300 ease-in-out delay-150 path-1"></path></svg>