<svg width="100%" height="100%" id="svg" viewBox="0 0 1440 390" xmlns="http://www.w3.org/2000/svg" class="transition duration-300 ease-in-out delay-150"><path d="M 0,400 L 0,250 C 74.97692307692304,257.4628205128205 149.9538461538461,264.925641025641 233,242 C 316.0461538461539,219.07435897435897 407.1615384615386,165.76025641025637 493,140 C 578.8384615384614,114.23974358974361 659.3999999999999,116.03333333333335 740,106 C 820.6000000000001,95.96666666666665 901.2384615384617,74.10641025641026 978,34 C 1054.7615384615383,-6.106410256410256 1127.6461538461538,-64.45897435897436 1204,-94 C 1280.3538461538462,-123.54102564102564 1360.1769230769232,-124.27051282051282 1440,-125 L 1440,400 L 0,400 Z" stroke="none" stroke-width="0" fill="#e6810f" fill-opacity="0.53" class="transition-all duration-300 ease-in-out delay-150 path-0"></path><path d="M 0,400 L 0,383 C 72.9025641025641,380.01666666666665 145.8051282051282,377.03333333333336 224,372 C 302.1948717948718,366.96666666666664 385.68205128205125,359.8833333333333 477,323 C 568.3179487179488,286.1166666666667 667.4666666666667,219.43333333333334 740,202 C 812.5333333333333,184.56666666666666 858.4512820512821,216.38333333333335 927,198 C 995.5487179487179,179.61666666666665 1086.7282051282052,111.03333333333333 1176,71 C 1265.2717948717948,30.96666666666667 1352.6358974358973,19.483333333333334 1440,8 L 1440,400 L 0,400 Z" stroke="none" stroke-width="0" fill="#e6810f" fill-opacity="1" class="transition-all duration-300 ease-in-out delay-150 path-1"></path></svg>

